<?xml version="1.0" encoding="UTF-8" standalone="no"?>
<!-- Created with Inkscape (http://www.inkscape.org/) -->

<svg
   width="210mm"
   height="297mm"
   viewBox="0 0 210 297"
   version="1.1"
   id="svg1"
   xml:space="preserve"
   xmlns="http://www.w3.org/2000/svg"
   xmlns:svg="http://www.w3.org/2000/svg"><defs
     id="defs1" /><g
     id="layer1"><path
       style="fill:none;stroke:#2a2a2a;stroke-width:0.2;stroke-dasharray:none"
       d="m 99.54225,13.821796 c 0.0155,19.52105 0,39.07152 0,58.60568 0,4.58161 0.0153,9.18896 -0.002,13.76768 -0.005,1.29438 -0.51066,3.95207 1.19965,4.34964 2.34766,0.54575 2.88043,-0.8595 2.89375,-2.862 0.028,-4.20885 0.002,-8.43966 0.002,-12.65063 v -33.3029 c 0,-3.05797 -6e-4,-6.26122 5e-5,-9.3025 2.6e-4,-1.23266 0.0145,-2.30523 0.0117,-3.53494 -0.005,-2.12554 0.10572,-4.24272 -0.1978,-6.32569 l -1.1163,0.55815 c -0.0761,-1.26958 0.88656,-1.75163 1.33924,-2.85291 0.41884,-1.01896 0.60031,-1.67313 1.63755,-1.98439 l 0.18606,-4.4652 m -1.86051,1e-5 c -0.003,1.82198 -0.017,3.09287 0,4.46519 m 14.88399,-4.46519 -1e-5,38.1402 1e-5,8.55829 c 0,2.08257 0,3.79463 0,5.39545 0.96747,-0.023 2.2639,0.0779 2.92072,-0.80148 0.63882,-0.85529 0.42751,-2.2872 0.42807,-3.29164 l 1.1e-4,-8.00012 v -39.81465 m -4.65125,0 c 0,11.65491 -0.17189,23.33378 -0.006,34.97735 0.0774,5.4416 -0.11178,12.03467 -0.17969,17.30263 l 1.30233,-0.18604 m -14.8843,-39.62861 c -2.3595,-0.73046 -2.02499,-3.19405 -2.03892,-5.39544 -0.0119,-1.88773 -0.0844,-3.94545 2.03892,-4.27915 m 2.04655,1.67445 v 55.07073 14.5119 c 0,1.50681 -0.54635,4.39239 0.34168,5.68594 0.50456,0.73495 1.67362,0.63042 2.45043,0.63731 1.97092,0.0175 4.03916,-0.28205 5.95223,0.0921 1.74199,0.34068 3.16037,1.42596 5.02334,1.54499 5.18932,0.33156 10.64783,0.10764 15.81424,0.0666 1.75878,-0.014 3.42897,-0.15243 5.19558,0.0461 1.08381,0.12175 1.82719,0.41771 2.80455,0.11326 l -1.30234,-0.18609 m -37.76844,-75.16419 c 0.47215,0.58715 0.81292,1.15361 -0.18604,1.67445 m -2.04655,-0.37211 1.11631,0.55813 m 1.30234,0 c 0,0.83493 -0.34648,2.29442 0.74422,2.60469 m -1.11631,3.53495 1.30234,10e-6 m 16.74447,36.65183 c 2.48061,0.34002 6.16417,0.0454 8.93039,-0.12408 6.23429,-0.38197 12.54504,-0.253 18.79103,-0.24784 2.72592,0.002 7.60447,-0.57998 9.68875,1.48892 1.55593,1.54445 1.10213,4.32134 1.10213,6.32499 0,5.09771 0.17726,10.1743 0.18664,15.25608 0.004,2.07807 0.47151,4.60108 -1.21698,6.15554 -2.50008,2.30162 -7.55331,1.46303 -10.6904,1.47325 -1.56388,0.005 -3.62323,0.16983 -3.00145,2.3119 0.47528,1.637492 3.92338,1.08079 5.23366,1.03342 5.30754,-0.19189 11.13639,-0.67829 16.37237,-0.74138 0,1.640364 0.055,3.455254 -0.0866,5.581494 -0.23033,3.45872 -0.0994,6.95364 -0.0994,10.4188 -1e-5,14.61478 0.83248,29.51124 -0.11201,44.09379 -0.29542,4.56133 -0.0754,9.19758 -0.074,13.76766 4.3e-4,1.40492 -0.39853,3.76132 1.50148,3.68433 1.95252,-0.0791 1.66035,-2.15754 1.66122,-3.68436 0.003,-4.59342 0.18615,-9.17512 0.18615,-13.76764 0,-14.76476 0.18605,-29.51567 0.18605,-44.27983 l -10e-6,-10.41879 c 10e-6,-2.13051 10e-6,-3.940792 10e-6,-5.581504 l -2.97679,1e-5 m -50.41953,-32.00057 c -2.77722,2.34791 -2.60179,5.35434 -2.60488,8.74434 -0.003,3.84418 -0.18587,7.68646 -0.18587,11.53509 0,2.37427 -0.16839,5.18034 0.3721,7.25594 m 46.14036,-9.48854 c 3.26072,0 9.3217,0.14712 13.02348,-0.0994 10.55668,-0.70307 21.41831,-0.45874 32.00055,-0.45874 M 4.0987161,88.985896 c 21.7072509,1e-5 43.4094839,-0.55815 65.1174219,-0.55815 6.63833,1e-5 13.2667,-0.18604 19.907322,-0.18604 3.2014,0 6.96523,-0.14629 10.04669,-0.18605 m -95.2574869,0.93024 0.186038,2e-5 m -4e-6,2.60472 c 15.9289209,0 31.8922899,-0.15727 47.8147939,-0.54503 5.818767,-0.1417 11.679287,0.27438 17.488677,-0.11253 6.47575,-0.43129 13.04634,-0.0233 19.535232,-0.0909 3.30453,-0.0344 7.23033,-0.1818 10.41878,-0.18179 m 4.27915,0.18606 c -0.005,1.48272 0.29038,3.13966 -1.52833,3.4526 -1.60036,0.27539 -3.35886,0.0416 -4.9834,0.13313 -5.51452,0.31082 -11.041622,-0.0451 -16.558442,0.15956 -25.416737,0.94266 -51.030683,0.71987 -76.4664449,0.71987 m -0.186048,-3.72099 0.186037,2e-5 m 156.4678679,2.41862 c 3.30173,-3.9e-4 9.44812,-0.18605 13.20954,-0.18605 10.67178,0 21.32977,-0.18604 32.00056,-0.18604 m -102.14133,0.7442 1.67445,-1e-5 m -101.3971239,0.93025 0.186037,2e-5 m 139.1652269,0.74419 h 2.2326 m -13.95373,0.18605 c 0.0124,4.453904 0.0269,10.497104 0.001,15.442134 -0.0536,10.54585 -0.18778,21.08459 -0.18778,31.62847 0,3.84558 -0.13851,7.69574 -0.18447,11.535 -0.0168,1.40431 0.044,2.78388 -1.30393,3.34897 -0.37806,-1.89775 -1.83918,-2.07787 -3.16284,-2.41864 m 6.51174,-59.535924 c 0.46826,0.46597 0.77037,0.42953 1.30235,0 m 0.74419,-1e-5 c 0.59824,1.27006 1.78172,1.33694 3.34495,1.29102 1.25883,-0.037 1.94989,-0.30304 2.4226,-1.29101 m 3.53495,-1e-5 v 2.23261 m -12.65139,0.7442 c 1.9183,-1.3429 8.20119,-1.34726 10.95722,-0.80043 0.93498,0.18551 1.6733,0.56893 2.43836,0.80043 m 25.30277,-1.11631 4.8373,0.18605 c -0.43824,1.603602 -0.3721,3.433324 -0.3721,5.581504 0,3.70813 0.16569,7.46163 -0.074,11.16299 -0.91899,14.18865 -0.29807,28.75655 -0.29807,42.97748 v 10.04669 c 0,2.18782 0,4.04342 0,5.76754 1.66277,-1.40177 1.67511,-2.78638 1.68564,-4.83729 0.0205,-3.98857 -0.0111,-7.93415 -0.0112,-11.90719 -2.1e-4,-13.92743 -0.83869,-28.1524 0.0866,-42.04724 0.25238,-3.78969 0.0809,-7.75778 0.10562,-11.53509 0.0122,-1.86741 0.24193,-3.745592 -1.1225,-5.209394 m -3.53495,0 c 1.8e-4,1.630422 0.0695,3.601154 0.14646,5.767544 0.13676,3.84868 -0.14587,7.68885 -0.14643,11.53509 -0.002,14.69953 -0.0749,29.40072 -0.18331,44.09379 -0.0257,3.47556 -0.14847,6.94709 -0.18457,10.41879 -0.0229,2.1957 -0.0711,4.03313 0.1818,5.76754 l 2.97681,-2.04655 m -1.67414,-75.536204 c 0.0549,1.594402 0.18571,3.456004 0.18603,5.581494 l 2e-5,11.53509 c 0,14.70166 -0.34051,29.3959 -0.37273,44.09381 -0.008,3.47232 -0.18542,6.94202 -0.18542,10.41877 0,2.13637 -0.0211,3.94051 -0.18605,5.58149 m 1.4884,-77.210644 c -2e-4,1.595802 -0.12128,3.459274 -0.17292,5.581484 -0.092,3.77902 -0.0131,7.5689 -0.0131,11.34904 1e-5,8.5629 -0.18605,17.11508 -0.18605,25.67488 0,5.9896 0.29862,12.06974 -0.0994,18.04682 -0.22609,3.39501 -0.0866,6.83136 -0.0866,10.23273 0,2.08017 0,3.80757 0,5.39545 M 101.03033,98.660516 c 0,1.859454 -0.0949,4.300874 -0.16795,6.697784 -0.14937,4.9002 -0.14349,9.79911 -0.35837,14.69795 -0.11921,2.71766 0.43725,4.56907 -1.52023,6.13964 -0.26089,-1.78903 -0.26397,-4.03429 -0.0866,-6.6978 0.31662,-4.75526 0.29542,-9.56198 0.44064,-14.32583 0.0704,-2.311 0.0915,-4.54627 -0.16796,-6.325684 2.21022,-0.58058 4.76725,-0.17224 7.0699,-0.16433 5.33426,0.0183 10.66614,0.53541 16.00029,0.55739 2.99609,0.0123 6.50884,0.0416 9.30247,0.16508 m 37.20996,-0.93025 c 0,1.593344 0,3.459784 0,5.581494 v 11.72113 c 0,14.70252 -0.18605,29.39454 -0.18604,44.0938 l -2e-5,10.41879 c -1.7e-4,2.13488 -0.11195,3.93955 -0.18604,5.58149 m -2.79074,-77.210644 c 0,1.556714 0,3.319084 0,5.395434 v 10.41879 c 0,14.82194 -0.18605,29.63991 -0.18605,44.4659 0,4.40747 -0.18636,8.80542 -0.18604,13.20953 1.2e-4,1.76374 -0.48968,3.85072 1.48838,4.0931 M 98.98382,128.61453 c -1.48887,-1.01916 -3.06651,-1.46185 -4.46519,-2.23259 1.12581,-0.37473 1.75958,-0.41424 2.6047,-0.37209 0.0207,-1.901 0.12079,-4.13112 0.21025,-6.51176 0.17457,-4.6452 0.38143,-9.30953 0.51517,-13.95374 0.0667,-2.31776 -0.50377,-4.96818 1.32111,-6.697774 m 3.53496,-1e-5 c -0.0956,1.664614 -0.18604,3.739194 -0.18606,5.953594 -3e-5,4.26641 -0.0309,8.57535 -0.21788,12.83744 -0.10217,2.32949 -0.15421,4.48071 -0.15421,6.32569 1.88652,-1.39727 1.67422,-2.92763 1.67445,-5.20939 4.7e-4,-4.58926 0.24731,-9.18089 0.35897,-13.7677 0.0548,-2.25018 0.0131,-4.44362 0.0131,-6.139624 m 1.67445,-1e-5 c -10e-4,2.016704 -0.18535,5.510834 -0.18609,8.186184 -0.001,4.4784 -0.35661,9.122 -0.37201,13.58164 -0.009,2.54458 0.9333,4.61046 0.5581,7.25594 l -0.3721,-1.86049 m 2.04652,-27.163274 c -0.0371,2.012094 -0.0868,5.523794 -0.23683,8.186184 -0.34851,6.1831 -0.39944,12.41274 -0.51664,18.60499 -0.0494,2.60804 0.0736,5.98687 -0.54889,8.18619 -0.45178,-0.96159 -0.65939,-1.73683 -1.30233,-2.04655 l -2e-5,0.18604 0.18604,0.18605 0.18605,0.18605 m 57.11729,-33.488954 c 0,1.556704 0,3.319084 1e-5,5.395434 -1e-5,3.4616 0.14974,6.96285 -0.062,10.41879 -0.90775,14.81572 -0.31004,29.99303 -0.3101,44.838 v 11.90718 c -1e-5,1.36829 -0.37843,3.47272 0.26748,4.59595 0.47514,0.82627 1.8428,0.50637 2.7093,0.42739 M 164.1012,98.846566 c 0,1.592594 0.0631,3.464424 -0.074,5.581494 -0.25211,3.89239 -0.11201,7.82169 -0.11201,11.72114 0,14.76224 -0.18605,29.52317 -0.18605,44.27983 v 10.41879 c 0,2.13053 0,3.94078 0,5.58149 M 109.21656,99.032596 c -0.25543,2.229064 -0.28641,6.879934 -0.35898,9.860644 -0.20962,8.61133 -0.55967,17.24819 -0.57162,25.86093 -0.003,1.93512 -0.18302,4.25679 -0.19157,6.13643 -0.007,1.60749 0.42532,3.61053 2.43059,4.20806 1.10881,0.3304 1.09422,-1.31517 1.10607,-2.16071 0.0382,-2.72673 0.15761,-5.45905 0.18597,-8.18379 0.0897,-8.62081 0.37603,-17.24175 0.37634,-25.86092 1e-4,-2.98237 0.18605,-7.62187 0.18604,-9.860644 m -1.67444,0 c 1e-5,2.262054 -0.15046,7.033704 -0.1818,10.046684 -0.0878,8.43771 -0.43604,16.86791 -0.55602,25.30279 -0.0425,2.98653 -0.0406,7.41463 -0.37848,9.67458 m 4.27915,-45.024044 c 0,2.490774 0.1287,7.743394 -0.0866,10.976934 -0.65051,9.76807 -0.47152,19.79096 -0.47152,29.58192 0,2.47147 -0.17885,5.40838 -0.18205,7.81396 -0.002,1.34708 0.31343,3.55344 2.08207,3.95945 1.22176,0.28047 1.23419,-1.08846 1.25592,-2.10172 0.0674,-3.14451 0.19204,-6.33791 0.19291,-9.48563 0.003,-9.86209 0.37211,-19.7228 0.37215,-29.58193 10e-6,-3.1832 0.1828,-8.60279 0.18605,-10.976924 m 41.8612,-0.18606 c 0,1.593334 0,3.459774 0,5.581494 v 11.72114 c 0,14.88015 -0.3595,29.77347 -0.37191,44.65195 l -1.9e-4,10.60483 c 0,2.13054 0,3.94078 0,5.5815 l 3.16285,-0.37211 m -1.1163,-77.768804 c 0,1.593324 0,3.459784 0,5.581504 l -3.6e-4,11.72113 c -0.0203,14.81444 -0.37175,29.65093 -0.37175,44.4659 v 10.41879 c 0,2.13053 0,3.94079 0,5.58149 M 115.54229,99.218656 c 0,2.330744 -0.186,7.490714 -0.18605,10.604854 -1.6e-4,9.55185 -0.37205,19.09945 -0.3721,28.65165 -1e-5,3.03171 0.56524,10.23959 -1.30235,11.16298 m 5.02334,-50.419484 c -1e-5,1.685914 0.003,8.297414 -2e-5,11.162994 -0.007,5.9386 -0.32393,11.9222 -0.37145,17.86078 -0.0395,4.93709 0.30201,9.96875 -0.15013,14.88397 -0.20444,2.22233 -0.0475,4.87299 -0.0363,7.0699 0.004,0.65702 -0.0818,0.98061 0.21371,1.41157 0.24783,0.36139 0.65905,0.37473 1.08384,0.43959 0.73004,0.11226 0.84951,0.24167 0.56277,0.75354 l -0.55815,0.18604 m 12.65138,-53.768374 c 1.13543,0.18375 3.28345,-0.12519 4.03687,0.718842 0.70491,0.789682 0.42795,2.295392 0.42828,3.374272 7.1e-4,2.85145 0.0446,5.70726 -0.009,8.55827 -0.23527,12.46148 -0.36283,24.92877 -0.36283,37.39599 0,3.22929 -0.18511,6.44801 -0.18599,9.67461 -3.9e-4,1.35619 0.1137,3.33343 -0.0715,4.59484 -0.12499,0.85101 -0.42628,1.08208 -0.6727,1.35874 0.71159,1.402 1.21317,2.17261 1.86049,3.3489 0.12546,-0.42997 0.26409,-0.83055 0.37408,-1.68906 0.1291,-1.00771 0.18098,-2.58378 0.18344,-3.70638 l 6.2e-4,-8.18618 c 0,-13.26916 0.37209,-26.54408 0.37209,-39.81466 1e-5,-4.09605 0.17874,-8.18515 0.18645,-12.27908 0.004,-1.7282 -0.1422,-3.116294 1.8772,-3.191194 1.63724,-0.0607 2.98029,-0.13231 3.08147,1.720314 0.0878,1.60739 -0.12167,3.53947 -0.12179,5.19166 -2.9e-4,3.52975 0.11618,7.08133 -0.11204,10.60484 -0.34386,5.30901 -0.005,10.68171 -0.0804,16.00029 -0.14902,10.47519 -0.36573,20.96499 -0.36573,31.4424 0,3.4728 0.0159,6.94603 -0.001,10.41878 -0.0127,2.49773 -0.0991,4.34216 -0.55642,5.95361 -0.73255,-1.54057 -1.07615,-2.24357 -1.59284,-3.90228 -0.37406,-1.20087 -1.06689,-2.05229 -1.75605,-2.79551 m 4.65125,-74.792014 h 0.7442 m 8.74434,0 c 0,1.716764 0,3.730694 0,5.953584 0,3.91043 -0.17687,7.81563 -0.18543,11.72114 -0.0329,15.01058 -0.37272,30.01661 -0.37272,45.02405 -1e-5,3.53943 -0.18578,7.06807 -0.18605,10.60483 -1.6e-4,2.24585 -0.0731,4.17636 0.18604,5.9536 0.87825,-0.26298 2.3135,-0.41456 2.82131,-1.18573 0.79855,-1.21273 0.34152,-3.25929 0.34155,-4.76786 1e-5,-3.84736 0.18604,-7.68543 0.18604,-11.53509 0,-15.19644 0.3721,-30.38876 0.37211,-45.58219 l -1e-5,-10.7909 c 1e-5,-2.07632 0,-3.83872 0,-5.395434 m -1.48841,0 c 0,1.631484 -0.0814,3.600754 -0.16174,5.767534 -0.14456,3.89797 -0.0243,7.82061 -0.0243,11.72115 -1e-5,15.01159 -0.3721,30.01314 -0.37211,45.02404 1e-5,3.53958 -0.18602,7.06679 -0.18604,10.60484 -2e-5,2.13053 0,3.94078 0,5.58148 m 3.90705,-78.699044 c 0,1.628754 0,3.601564 -1e-5,5.767534 0,3.91091 -0.18604,7.80954 -0.18604,11.72115 0,14.8228 -0.0831,29.64944 -0.36285,44.46589 -0.0655,3.47072 -0.009,6.94745 -0.009,10.41878 0,2.24587 -0.0731,4.17635 0.18605,5.9536 l 1.30236,-0.18605 M 120.38058,99.404716 c -10e-4,2.505224 -0.18604,8.717644 -0.18604,12.093234 -1e-5,9.61553 -0.18139,19.2271 -0.36284,28.83772 -0.0624,3.3023 -0.009,8.75541 -0.009,11.53508 m 3.721,-52.466034 c 0,2.420024 -0.13355,8.107384 -0.17967,11.349034 -0.1464,10.29016 -0.19243,20.59545 -0.19243,30.88427 1e-5,2.48873 -0.0682,4.95666 -0.16184,7.44196 -0.0371,0.98335 0.14527,2.35892 -0.36429,3.10063 -0.5109,0.7437 -1.46634,0.39393 -2.07856,0.24829 m 4.65125,-53.024184 c 0,2.420024 -0.13357,8.107384 -0.17969,11.349034 -0.14556,10.23129 -0.19242,20.46614 -0.19241,30.69821 -10e-6,3.55365 -0.18606,9.62009 -0.18605,11.90719 l -1.67446,-0.3721 M 128.381,99.404716 c 0,2.613224 0,8.495474 0,11.907184 0,10.66322 -0.37128,21.33843 -0.37209,32.00057 -3.2e-4,4.18693 -0.31416,10.07714 0.37209,12.46532 m 1.67444,-56.373074 c 0,1.559544 0,3.176144 1e-5,5.209394 -1e-5,2.78532 0.0985,5.59181 -0.0866,8.37224 -0.67473,10.13187 -0.28548,20.54184 -0.28548,30.69821 0,3.96845 0.5725,9.69774 -0.37209,13.20954 m 7.44198,-57.489384 1.48841,1e-5 m 6.51173,-1e-5 c 0,1.628374 0.0396,3.602734 -0.0131,5.767534 -0.0997,4.09569 -0.17291,8.17924 -0.17292,12.27929 10e-6,17.05309 -0.55562,34.11246 -0.55813,51.16369 -6.5e-4,4.52783 0.0826,9.05961 -0.14539,13.58163 -0.12852,2.54863 0.0346,4.47847 -0.41278,6.13965 l -2.23258,-3.72099 m 5.20938,-85.210804 c -0.0408,1.594334 -0.18543,3.456504 -0.186,5.581484 -7e-4,3.78274 0.0251,7.56641 -0.003,11.34904 -0.1176,15.93417 -0.55538,31.87837 -0.55537,47.8148 -1e-5,4.09672 -0.16354,8.18776 -0.18433,12.27928 -0.0129,2.53645 -0.0604,4.46129 0.18432,6.13964 1.04825,-1.51839 1.4885,-2.88084 1.4887,-4.83759 3.9e-4,-4.33839 -0.0732,-8.85508 0.009,-13.20923 0.28788,-15.24716 0.54889,-30.51657 0.54888,-45.76824 0,-4.4693 0.18605,-8.92583 0.18605,-13.3956 1e-5,-2.20917 0,-4.29049 1e-5,-5.953584 m 1.67444,0 c 0,1.628764 0.001,3.601554 -1.9e-4,5.767534 -0.004,4.02977 -0.18587,8.05878 -0.18586,12.09325 -1e-5,15.12986 -0.39656,30.26889 -0.55391,45.39614 -0.0374,3.59622 -0.004,7.19446 -0.004,10.79089 -1e-5,2.23576 -1e-5,4.1891 -1e-5,5.95359 1.74904,-0.88555 1.49625,-2.38532 1.61247,-4.27917 0.27997,-4.5628 0.0613,-9.19679 0.062,-13.76766 0.002,-15.25265 0.55812,-30.51479 0.55813,-45.76824 l -1e-5,-10.79089 c 5e-5,-2.0818 0.0525,-3.83788 0.18607,-5.395444 m -29.39587,0.18604 c 0,3.962024 2e-5,9.088694 0,13.209544 -4e-5,8.98606 -0.23791,17.99213 -0.36574,26.97722 -0.0353,2.48033 0.0152,4.96156 -0.0106,7.44199 -0.0108,1.03726 -0.0807,2.39652 -0.20395,3.33896 -0.12441,0.95185 -0.34215,1.40082 -0.536,1.87043 m 5.9536,-52.838144 c -1e-5,4.013694 0,9.220474 -1e-5,13.395594 1e-5,9.10105 0.0224,18.24898 -0.19917,27.34932 -0.071,2.91838 -0.17293,5.82209 -0.17293,8.74434 0,1.93681 0,3.72153 0,5.39544 l -1.4884,-0.7442 0.7442,-0.18605 m 7.62805,-53.954444 c -1e-5,2.547824 -1e-5,9.030604 0,12.465344 -1e-5,11.46514 -0.0293,22.95231 -0.19243,34.41921 -0.0503,3.53264 -0.1619,7.0691 -0.18105,10.60476 -0.008,1.43898 0.0102,2.78533 -1.48703,3.34897 m 8.5583,-60.838284 c 0,1.518784 5e-4,3.179714 -6e-5,5.209394 -7e-4,3.22659 -0.186,6.44531 -0.18599,9.6746 -1e-5,13.95327 -0.3721,27.90508 -0.37211,41.8612 0,3.22917 -0.16793,6.44982 -0.18433,9.67457 -0.007,1.35242 0.0691,3.19201 -0.0482,4.45526 -0.0826,0.88995 -0.30713,1.37209 -0.51169,1.87045 l 0.37209,1.86049 m 2.6047,-74.605964 c -1e-5,1.556354 0.0374,3.320204 -0.0131,5.395444 -0.0831,3.41416 -0.17293,6.81449 -0.17293,10.23275 0,9.17455 -0.27243,18.36204 -0.36785,27.53537 -0.0579,5.56923 0.2438,11.18518 -0.11625,16.74448 -0.2278,3.51697 -0.074,7.08147 -0.074,10.60483 0,2.55083 0.10111,4.46768 -0.37211,6.13965 m -5.39545,-76.466452 c -0.27708,1.900272 -0.18604,3.973702 -0.18604,5.953572 l -1.1e-4,9.86065 c -0.006,10.9704 -0.37199,21.9599 -0.37199,32.93081 -10e-6,5.01845 -0.38981,12.30288 0.3721,16.18632 l -2.04655,-1.48839 m 43.90775,-61.02433 c 2.45481,0 6.16609,0 8.93038,0 6.7005,0 13.39073,-0.18604 20.09339,-0.18604 M 4.0987211,103.86989 c 22.3185989,0 44.6642279,-0.14612 66.9779169,-0.56742 6.0776,-0.11475 12.15077,-0.14759 18.232882,-0.17851 2.6729,-0.0136 5.95817,-0.18432 8.37224,-0.18432 m -93.7690889,0.93025 0.186052,-1e-5 m 80.3735049,22.69808 c 0.39039,-0.22414 0.74584,-0.44854 0.79073,-1.35358 0.0289,-0.58311 -0.28756,-2.20825 0.48158,-2.48039 0.84709,-0.29972 2.10889,1.16838 2.63506,1.65709 1.846542,1.7149 4.102922,3.56084 3.348582,6.08394 m 12.09324,-7.62805 h 1.30234 m -2.97678,1.1163 -1.30236,1.1163 m -3.34889,0.74419 1.30235,0.18606 m -8.37224,0.18605 4.0931,0.18604 m 4.83729,-0.18605 c 1.5984,1.11267 3.9151,3.0488 5.58149,4.4652 l -0.18605,-1.8605 m -19.349172,-2.23259 c 0.39467,1.04478 0.58356,1.8773 0.74419,3.53494 m -0.7442,-3.16286 0.18605,0.74422 m 5.209392,-0.74421 -0.55814,0.55815 m 10.23274,-0.55815 -0.55815,0.3721 m 5.58149,-0.3721 -0.18605,0.18606 m -22.325982,0 c 3.77668,0.94817 2.28518,4.97154 2.9768,7.62803 l 1.30237,-2.23257 m 5.767552,-5.20941 0.18604,3e-5 m -1.30235,0.3721 c 1.28949,1.28802 1.38793,2.781 0.7442,4.46519 m -2.04655,-3.3489 1.11631,-1.11629 m 2.41864,0 1.3025,0.74392 m 9.67459,-0.74419 0.55815,0.93025 0.18605,-0.7442 m -26.791172,-1e-5 c 2.38951,0.0139 4.28966,0.50489 6.3257,0 m 5.023342,0.18606 0.3721,-0.18606 m 5.02334,0.3721 0.55815,0.55816 m -11.721142,-0.37211 c -1.11749,1.0703 -3.13553,4.46091 -1.86049,5.02335 m 9.116432,-5.02335 -1.11629,0.93026 m 0.37206,-0.74423 v 0.3721 m 14.51188,-0.3721 v 0.55815 m -12.27929,-0.3721 c 0.63043,1.18139 0.78152,2.11405 0.55815,3.53495 M 80.379268,129.5445 c 1.318,-0.25572 2.2305,-0.37417 3.3489,-0.18605 m 15.814222,-0.3721 0.93026,0.7442 m -9.11644,-0.55815 -0.18605,0.7442 m 3.90705,-0.7442 1.67444,2.6047 m -16.558432,-0.3721 2.9768,-1.4884 m 9.674582,0.18605 -0.55813,1.11631 m 4.8373,-0.93025 0.74419,1.1163 m -6.51174,-0.93025 -0.55815,0.3721 m -4.465202,-0.18605 0.3721,1.8605 m 12.093242,-1.8605 c 0.21874,0.79243 0.79929,1.95447 1.67445,2.04655 m 4.4652,-2.04656 0.37209,0.7442 m -4.46519,-0.55814 1.30236,1.4884 -1.11633,-0.74417 m -7.81409,-0.55815 0.18605,0.93026 m 6.51175,-0.93025 0.3721,1.30234 m -3.16285,-1.1163 0.18605,0.18605 m 6.88383,-0.18605 0.74424,0.37207 m -21.023632,-0.18605 -0.3721,0.3721 m 7.814082,-0.3721 -0.55814,0.3721 m 7.25594,-0.3721 0.93025,1.4884 m -0.93028,-0.55811 0.55815,0.93025 m -2.2326,-0.7442 0.3721,3.53495 v -1.4884 m 5.5815,-2.04655 c 0.438,1.02197 0.71859,1.84046 0.74419,2.79075 m -20.279422,-2.6047 0.18604,2e-5 m 5.02334,0.18605 -0.3721,0.3721 m 1.302352,-0.18606 -0.372112,0.37211 m 7.628052,-0.37211 0.37211,0.37211 m 5.20939,-0.37211 0.55815,0.74421 m -8.9304,-0.55815 -2e-5,0.18604 m -11.162982,-10e-6 -1.11633,2.04654 c -1.90434,-0.64841 -4.56993,-0.62493 -7.06989,0 m 15.814242,-2.04655 -0.37211,0.3721 m 15.44214,-0.3721 1.23363,2.42129 0.44081,4.46255 -1.30236,-1.30235 m -18.977072,-5.20939 v 0.37209 m 12.837432,0.37211 -0.18604,-0.7442 0.7442,1.30234 m 6.51174,-1.30234 v 0.55815 m -19.163132,-0.3721 -0.37212,0.55814 m 9.488542,-0.55815 0.3721,0.74418 m -9.302502,-0.55815 c 0.75334,0.87054 0.90045,1.90539 1.1163,3.16286 m 14.139782,-3.16286 0.18607,0.18606 m -17.302642,1e-5 c 0.45921,1.07775 1.0913,2.10873 1.76046,3.10914 0.53107,0.79396 1.14691,1.536 2.164172,1.55646 1.89046,0.038 3.25404,-1.99773 4.26156,-3.36327 m -3.90705,-1.30233 -0.18605,0.18605 m 9.11644,-0.18606 0.37209,0.55815 m -10.976942,-0.18606 -0.55814,0.55815 m 2.418652,-0.37209 0.37209,-0.18606 m 10.4188,0.18606 1.1163,2.23259 -0.37211,-0.55815 c -0.0758,0.76644 0.65475,1.04002 0.74418,0.37215 m -10.41879,-1.86051 -1.30235,0.7442 v -0.37209 m 6.13965,-0.37211 0.37209,1e-5 m 2.23259,-1e-5 0.18605,1.30235 -0.37209,-0.37209 m 4.65124,-0.74421 0.3721,0.55816 -0.74419,-0.18605 m 0.55815,-0.18604 -0.37211,0.37208 m 1.8605,-0.37209 0.74419,0.74419 m -24.930662,-0.55815 -0.18605,0.18605 -0.18607,0.37209 0.7442,0.18606 m 19.535232,-0.7442 0.18605,0.74419 m -4.4652,-0.37209 -0.93025,2.41864 m -3.16284,-2.2326 -0.18605,0.55815 m 11.34905,-0.55815 0.37208,0.55815 m -31.256362,1.11631 c 1.71616,-0.52481 3.61735,-1.00018 5.38825,-1.19355 0.91148,-0.0995 1.63957,-0.0641 2.08085,0.76332 0.64552,1.21033 0.94404,2.57768 0.90314,3.96516 l 1.4884,-0.55814 m -2.2326,-4.27914 c -2.08099,0.94055 -5.47134,2.38453 -8.00014,4.27914 m 13.95374,-4.27914 -0.55815,0.37209 m 13.767682,-0.3721 0.18605,0.55816 m 5.20939,-0.18606 1.1163,1.1163 m -9.30249,-0.93025 -0.37208,2.79075 m -22.139942,2.23281 c 1.99272,-1.75193 4.06185,-3.551 5.95359,-4.65126 m 16.000282,0 0.3721,0.37211 m 5.39544,-0.37211 -0.37209,0.37211 0.3721,0.37209 -0.18606,-0.55815 m -20.465472,0 -0.55815,0.74421 m 17.860782,-0.74421 0.7442,2.04656 0.18605,-1.30236 m 1.8605,-0.74419 0.18605,0.18605 m -3.53495,-1e-5 -0.3721,2.79076 m -18.604972,-1.8605 1.1163,-0.74421 m 21.953872,0 0.55815,0.74421 c 0.36816,-0.36817 0.24318,-0.17139 0.37213,-0.55814 m -16.372392,0 0.18604,2e-5 m 15.070032,0 0.37209,0.55816 m -24.558572,3.16279 c 0.94328,-1.52801 1.76299,-2.50373 2.79074,-3.53494 m 8.930392,1e-5 -0.3721,0.37209 m -1.488392,-0.18604 -0.55816,0.55815 m 16.000292,-0.55816 1.67445,2.41866 m -23.070182,-2.2326 -0.55815,0.74419 m 11.349042,-0.74419 -1.8605,1.67444 -0.7442,-1.11629 m -9.116442,-0.18606 -1.1163,1.11631 0.55816,-0.37211 m 22.325972,-0.74419 0.55815,1.11629 m -9.3025,-0.55815 c -1.10972,1.39888 -2.12305,2.11075 -3.53494,2.9768 m 9.11644,-2.97679 0.18605,0.93025 0.3721,-0.93026 0.7442,2.04656 -0.93025,-1.30236 m -5.02334,-0.55815 -2.2326,3.3489 m 11.163,-3.3489 0.18603,0.3721 m -24.372522,0.18606 0.55815,-1e-5 m 5.02334,0 c 0.6428,1.25849 0.85849,2.18245 0.3721,3.53495 m 7.069902,-3.53495 -1.30235,1.48839 m 9.30249,-1.48839 -0.3721,0.3721 m 6.51174,-0.3721 1.1163,2.2326 m -28.279572,-2.04655 c -1.24344,1.68885 -2.96231,3.76165 -2.67513,5.87956 0.38055,2.80655 1.42163,5.97913 0.47713,8.96979 -0.39223,1.24199 -1.53199,1.86919 -2.00202,3.06409 -0.37351,0.9495 -0.10627,2.26082 -0.79271,3.02918 -1.14002,1.27612 -2.22546,0.78553 -3.00741,1.01125 l 0.7442,0.55815 c -1.64447,1.49371 -5.59728,1.54905 -8.55829,1.71339 -1.40437,0.078 -2.85922,0.11541 -4.27914,0.1877 -1.76898,0.0901 -3.49103,0.12705 -5.209398,0.0191 -2.397591,-0.15065 -4.809933,-0.14374 -7.255942,-0.27532 -1.486204,-0.0799 -3.208772,-0.1974 -4.633085,-0.52126 -0.916715,-0.20845 -1.806752,-0.70047 -2.730892,-0.24626 -0.854442,0.41996 -1.336324,1.40312 -2.087096,1.98131 -0.868216,0.66865 -2.340794,0.71892 -2.632565,1.90355 -0.385168,1.56385 0.402225,3.44765 0.03045,5.02728 -0.194992,0.82847 -0.878765,1.27863 -1.146397,2.05965 -0.369127,1.07723 -0.195857,2.32695 -0.195983,3.40696 0.647115,7e-4 1.280483,0.009 2.229924,0.0207 0.804361,0.0101 1.685827,0.0741 2.02957,-0.74293 0.437401,-1.03966 0.178452,-2.80315 0.181911,-3.92899 0.0084,-2.74218 0.405651,-5.28132 -0.162258,-7.62804 M 90.79792,140.70772 v 0.93025 m 8.93039,-0.93024 -10e-6,0.37211 m 5.9536,-0.37212 0.7442,0.93025 m -26.605111,-0.7442 -0.74392,1.30252 m 2.9768,-1.30236 v 0.37213 m 15.070031,-0.18605 -0.37216,0.74418 m -14.511871,-0.37211 c -0.0116,1.17992 0.12713,2.05071 0.93025,2.97681 l -0.3721,1.30234 c 1.00574,-0.26349 1.4503,-0.72136 2.04655,-1.30234 m 16.000271,-2.6047 10e-6,0.37209 m 0.3721,-0.37209 0.18604,0.3721 m -60.466424,21.39557 c 3.267876,-1.37351 8.188434,-1.42909 11.907182,-1.48203 1.386354,-0.0198 4.13259,0.51571 5.24406,-0.44746 1.37478,-1.19135 0.65987,-5.14029 0.80345,-6.81485 0.0972,-1.1335 0.22752,-2.07417 0.40058,-3.16284 0.33471,-2.10561 1.02261,-6.68557 2.24309,-8.31535 1.60088,-2.13776 7.39337,-1.21015 9.72775,-0.69598 2.59636,0.57187 4.01516,1.09592 5.39545,3.42983 m 3.34889,-3.72098 -0.3721,1.30234 m 11.907192,-1.30235 -0.3721,1e-5 m 6.51174,-1e-5 c 0.37235,1.4113 1.1534,2.51097 2.2326,3.53495 v -1.1163 m -21.023632,-2.23261 -1.11632,2.04654 m 16.000282,-2.04655 1e-5,0.37211 m -35.163392,10.60485 c -0.81101,-1.27976 -1.39278,-2.59377 -2.13453,-4.08385 -0.39438,-0.79227 -1.181575,-1.6954 -1.015089,-2.64357 0.412187,-2.34745 3.782859,-3.55433 5.754309,-3.87742 m 45.396152,1e-5 1.1163,0.3721 m -16.37239,-0.18606 -2e-5,0.18604 m -9.302492,0 -0.37209,0.37209 m 2.04654,-0.37209 -0.3721,0.93024 m 13.953732,-0.93024 0.55816,0.18604 m 7.25593,-1e-5 0.37211,0.55816 h -1.67444 l -1e-5,0.7442 -2.04655,-0.18605 0.55815,1.1163 m 3.34889,-2.04655 h 0.93025 m -15.44212,0.18606 h 0.93025 l -0.55816,0.55815 m 8.55829,-0.74421 1.67446,1.8605 m -5.9536,-1.67444 -1e-5,0.93024 0.55811,-0.93026 m 1.1163,-1e-5 v 0.3721 m 5.20941,-0.18606 h 0.74418 m -1.86049,0.18606 0.18605,0.18605 m -3.53495,-1e-5 c -0.28792,1.15324 -0.60882,1.89635 -1.30235,2.97679 m -21.395722,-2.6047 c 1e-5,2.0129 0.0869,4.46096 -0.11475,7.25595 -0.16127,2.23542 -0.25592,3.98054 -0.25735,5.76755 m 33.302912,-13.0235 1.11631,1e-5 m -13.95374,0.18606 -0.55815,2.41864 1.48841,-2.04656 0.37209,1.48841 m -5.02335,-1.67445 -2e-5,0.18603 m 6.6978,-0.18604 0.18605,0.7442 m -14.325832,-0.55816 -0.55816,0.37211 m 8.744342,-0.3721 -0.18604,1.30234 0.55815,-0.18605 m 17.67472,-0.55814 -0.55814,0.3721 c 0.79293,-0.0518 1.02551,-0.20335 1.4884,-0.55815 m -27.907472,0.18604 c 0.11356,0.94162 0.5818,1.06487 1.48839,0.37211 m 9.116442,-0.3721 0.55814,0.37212 m 16.00027,-0.18605 -2e-5,0.18604 m -1.11629,0 h 0.3721 m -16.00029,0.18605 -0.74416,1.11632 0.18605,-0.93026 m -16.930532,0.18606 -0.3721,0.93025 m 34.977362,-0.93025 0.93025,1.4884 -1.30236,-0.18607 m -27.349312,-0.93023 -0.37209,0.3721 m 1.30234,0 -0.18605,1.30234 0.55815,-0.37209 m 8.372242,-0.93026 -0.74421,0.55815 m 7.0699,0 0.55815,0.55815 m 12.09324,-0.37209 0.55815,0.55814 m -0.18606,-0.55814 h 0.37211 m -4.65125,0.37209 h 0.37211 m -37.768032,0.37213 c -1.6246,2.2846 -2.87715,4.59105 -3.77827,7.25594 -0.58873,1.74112 -1.14983,3.36256 -1.61717,5.02334 l 1.67444,-1.1163 m 16.93053,-11.16298 c 0.0615,0.52351 0.60321,0.6835 1.30236,0.3721 m 5.767542,-0.37209 -0.93025,0.93024 m 8.37224,-0.93025 v 0.3721 m 8.74434,0.18605 v 0.3721 -0.3721 m -22.325972,0.18605 0.18604,1.86049 m 12.651392,-1.8605 -0.18605,0.55816 m 14.32583,-0.55816 0.93025,0.18607 m 1.8605,-0.18606 v 0.93025 m -8.18619,-0.7442 v 0.93025 m -18.046832,-0.18606 0.558152,1e-5 -1.302342,0.55815 m -1.30235,-0.37211 -0.74421,0.7442 m 20.279432,-0.55814 v 0.55815 m -21.395732,-0.18606 0.37211,0.18605 m 5.953592,-0.3721 -2.418652,2.41865 m -3.16284,-2.2326 c -0.26264,0.9183 -0.47365,1.39229 -0.93025,2.2326 l 2.41865,-0.93025 m 26.605112,-1.30234 1.1163,1.11629 -0.93025,0.55816 0.55815,0.93024 -1.11631,0.55815 m 1.11631,-2.9768 0.18604,2e-5 m 2.2326,0.18605 h 1.30234 m -12.65138,0.18604 -0.18605,0.74421 m 9.48854,-0.18605 h 0.3721 m 90.79229,0.93025 c -2.00762,-1.8e-4 -3.16763,-0.005 -4.4652,-0.3721 1.41302,-0.39993 2.82409,-0.37194 4.4652,-0.3721 m -101.21108,0.18604 v 0.55816 m 11.72114,-0.3721 1.4884,0.18605 m 88.00154,10.97692 c -3.91731,-0.13492 -8.04265,-0.30964 -11.90718,-0.25427 -2.26533,0.0325 -2.96519,0.0928 -5.02335,-0.48991 l 9.29322,-7.02692 3.17211,-3.39187 m -84.09449,0.55815 -0.93025,0.7442 m -30.698202,-0.55816 c -0.41925,0.9771 -0.7283,1.51422 -1.30232,2.41866 h 1.1163 c -0.34339,1.26637 -0.29938,2.61317 -0.3721,3.90704 l -0.18605,-0.3721 m 18.977082,-5.95359 10e-6,0.55816 m 12.46532,-0.55816 h 0.74421 m -3.721,0.18605 0.18604,2e-5 m 3.721,0 h 0.74419 m 3.16285,0 2.2326,0.93025 -0.93025,-0.7442 m -5.2094,0.3721 0.7442,0.18605 m 8.5583,-0.18605 1.30234,0.3721 m 72.5594,-0.18605 h 5.39546 m -82.42005,0.18605 h 0.74419 m -8.00014,0.18605 h 0.55816 m 4.09308,0.55815 1.48842,-0.18605 c -0.46021,0.7293 -0.24841,1.05462 0.37208,1.48839 m -36.465752,-1.67444 -0.7442,0.93025 m 2.04655,-0.93025 -2.04655,2.9768 m 26.977212,-2.2326 c -0.33412,-0.17685 -0.29819,-0.22169 -0.3721,0 l 1.67446,-0.74419 m -2.6047,0.18604 0.55813,0.37213 m -48.372942,-0.18604 -0.18605,5.39544 0.93024,-1.1163 m 47.256652,-4.27915 v 1.8605 l -1.30235,-1.1163 m 5.5815,-0.7442 1.48839,0.55816 -0.7442,0.74418 0.18605,-0.55814 m 4.83729,-0.7442 0.18605,3e-5 m 7.25594,0.18604 0.55815,0.18605 m -61.024332,-9e-5 c 1.32329,2.68195 2.368,4.58341 3.16285,6.32569 m 45.582192,-6.13963 0.74421,0.18603 m -33.488962,0 -0.3721,0.37212 m 35.163412,-0.18605 2.41864,-1e-5 m -11.34903,0.37209 -0.3721,2.04656 m 6.51174,-2.04656 0.3721,0.55816 m -1.4884,-0.37209 0.93025,0.37208 m -6.51174,2.2326 -0.18605,-2.41864 0.55815,0.55815 m 5.95359,-0.3721 -0.3721,1.11629 -1.48841,-0.18604 0.55816,-0.18604 m 6.32569,-0.74421 1.67445,0.3721 m -7.44199,-0.18605 0.55815,0.55816 m 14.69793,-0.55815 0.3721,0.37209 m -9.67458,1.30236 -0.93025,-1.1163 1.4884,-0.18607 m 5.02334,-0.18605 0.93026,0.55811 -0.74418,0.18605 m 2.23259,-0.7442 0.7442,0.18605 m -45.210102,0.18606 -0.3721,0.37209 m 2.79075,-0.37209 c -0.9648,1.36436 -1.53017,2.69433 -1.67445,4.46519 l 1.11631,-1.1163 m 19.349172,-0.55815 0.3721,0.93025 c 0.34536,-0.86047 0.49817,-1.34523 0.7442,-2.2326 l 0.55815,1.1163 c 0.32825,-0.83447 0.49004,-1.49362 0.93024,-2.41865 l 0.55815,0.55815 m 12.83743,-0.74419 -0.93025,0.18604 m -10.79088,0 0.3721,0.55815 m 17.11657,-0.55815 1.1163,0.18605 m 2.2326,-0.18605 c 0.83183,1.03883 1.26589,1.59301 1.8605,2.6047 l -0.74422,-0.37205 m -17.67473,-2.04655 0.3721,0.3721 m 4.27915,1.86049 -0.37211,-1.86049 1.30235,0.37211 m 1.67446,-0.37212 0.18603,2e-5 m 4.65125,0 1.67444,0.93025 m -7.81409,-0.7442 h 0.3721 m 6.32569,0 0.55814,0.37212 m 2e-5,-0.18603 0.37209,0.18607 m -3.53496,1e-5 0.93026,-1e-5 m 1.1163,-0.18603 0.18604,0.18605 m 1.48839,-0.18605 1.30236,0.18604 m -22.51203,1e-5 -2e-5,0.18603 m 7.25593,0.3721 v -0.55815 l 1.11632,0.55813 m 4.65124,-0.55815 0.3721,0.3721 m -2.04654,0.7442 -0.55816,-0.7442 0.93025,0.18605 c -0.36671,0.45315 -0.7505,1.05481 -1.4884,0.93025 m 9.48854,-1.30235 -0.93025,0.3721 m -40.372792,-0.18605 h 0.37209 m 40.744912,0 0.55812,0.37212 m -42.233292,-0.18605 -0.7442,0.7442 m 43.721712,-0.7442 0.18605,0.18605 m -15.25608,0.18605 0.93022,0.55819 -0.55816,-0.18605 m 0.93025,-0.18606 0.55815,0.74422 m 8.18619,-0.74422 0.93025,0.37212 m -6.88384,-0.18606 0.18605,0.18605 m 0.7442,-0.18605 0.18605,0.18605 M 4.0987141,182.19683 c 3.159255,-0.6477 7.5076869,-1.52948 9.9661729,-3.71297 1.280209,-1.13702 1.617018,-2.80295 2.936747,-3.92291 3.667041,-3.11197 7.663094,-6.08453 11.469599,-9.04447 2.064608,-1.60545 5.770403,-5.17212 8.6814,-4.01656 1.111722,0.44131 1.479436,1.62899 2.109485,2.46404 m 69.954722,-2.79074 v 2.2326 m 4.65125,-2.23261 0.18604,0.18605 m 4.27916,-0.18605 0.7442,0.55815 m -56.187052,-0.3721 c 0.10934,0.57532 2.22917,1.07028 2.41865,0.18605 m 24.744622,-0.18604 v 0.7442 m 27.72142,-0.7442 0.18605,0.55814 0.55815,-0.55814 m 4.46519,-1e-5 1.30235,0.55816 m 8.74434,-0.55815 1.1163,1.4884 m 42.41935,-1.48841 c 1.2448,0.0849 3.37106,-0.18556 4.29695,0.94993 0.60743,0.74492 0.53252,1.86734 0.53857,2.77116 0.0248,3.6994 -1.15163,4.73361 -4.09133,6.88376 -0.10083,-1.43028 0.98313,-1.98098 1.12284,-3.5757 0.19148,-2.18564 -0.19087,-4.50388 -0.19259,-6.65705 m -61.02433,-0.18604 1.11631,1.67444 m -5.39545,-1.48839 0.18605,0.93024 -0.18605,-0.93024 m -37.582052,0.3721 c 2.46391,-6e-4 7.22171,-0.56085 9.86063,0.18604 m 32.930822,-0.3721 -10e-6,0.74421 m -59.349872,-0.55816 c 1.32534,0 2.44852,10e-6 3.90704,0 m 42.977502,10e-6 -0.18605,1.86049 m 0.7442,-1.8605 v 0.55815 m 5.9536,-0.55814 0.55815,1.4884 m 14.88397,-1.4884 1.30235,0.3721 m -63.442972,-0.18605 c 1.89714,9.9e-4 4.17802,0.13351 5.76754,0.37209 m 45.210102,-0.3721 0.93025,0.37211 m -0.18605,-0.37211 0.18605,0.18605 m 5.76754,-0.18604 0.7442,0.74419 h -0.7442 l 0.3721,0.93025 -1.86049,-0.18605 m -16.74448,-1.30235 0.55814,1.30236 m 17.11658,-1.30235 0.55815,0.55814 m -35.721562,-0.37209 c -0.58144,1.27433 -0.76611,2.4244 -0.7442,3.90703 l 0.93023,-1.4884 m -2.2326,-2.2326 c -0.32233,1.14017 0.0545,3.5948 -1.10942,4.19755 -0.98305,0.50908 -2.46902,0.26753 -3.54183,0.26763 -3.657,3.3e-4 -12.82359,-0.46442 -13.03953,5.00305 -0.10775,2.72814 4.64954,1.88434 6.34175,1.88147 3.41145,-0.006 6.5691,-0.063 9.86064,-0.98283 3.07245,-0.85862 4.8692,-1.85119 5.953592,-4.41328 m -3.721002,-5.95359 0.3721,1.48839 m 3.907052,-1.48839 v 0.7442 m 27.34931,-0.55816 0.18605,0.18606 m 10.23273,-0.18605 1.86052,0.18605 m -57.675452,0 c 1.98993,0.69525 2.85603,2.20784 3.16285,4.0931 m -1.30234,-3.90705 c 2.46551,0 8.52335,0.0419 10.79088,-0.18605 m 5.953602,0 0.18605,1.30235 m 13.58163,-1.30235 c -0.16192,0.95913 -0.27582,1.47731 -0.55816,2.41865 l -0.18604,-1.1163 m 7.81409,-1.30235 c -0.0654,0.97744 -0.17242,1.61023 -0.18604,2.6047 m 4.83728,-2.6047 0.3721,1.11629 -0.18604,-0.37209 m 1.30234,-0.7442 -0.18605,0.93025 m -6.51173,-0.55815 0.18603,0.74419 m -73.303581,1.67446 c -0.15645,-0.6342 -0.389744,-1.17351 0.186049,-2.23259 m 77.768812,0 0.7442,1.30235 m 64.74532,3.53494 c 2.22119,-1.21833 4.47225,-4.61948 7.06989,-4.83729 m -81.30375,0.18605 0.3721,2.04654 m 19.16313,0 -0.55815,-2.04653 2.41862,1.48842 m -12.65138,-0.7442 c -0.55735,0.0526 -0.57238,-0.0785 -0.55815,-0.55814 l 0.55815,0.55814 m 8.37224,-0.55814 h 0.3721 m 3.16285,0.55815 -0.37211,-0.37211 0.74421,0.55814 m -54.326522,-0.55818 c -1.536,0.85394 -3.70963,1.12934 -5.76754,1.31775 -4.15646,0.38054 -8.29594,0.3567 -12.46534,0.3567 m 53.024192,-1.67445 -0.3721,2.04655 m 2.41864,-2.04654 0.18606,1.67444 -0.55815,-1.1163 m 6.32568,-0.55815 1e-5,0.37211 m 69.58261,-0.37211 c 2.1804,0.61714 4.99577,0.70281 7.06989,1e-5 2.25647,0.92627 8.39082,0.75478 12.27929,0.93025 m -113.86246,-0.74419 0.18605,1.11629 m -53.210236,-0.93025 c 2.433875,1.09922 7.618902,1.30234 10.976933,1.30234 m 62.140623,-1.30233 v 0.3721 m 14.51189,-0.37211 0.3721,0.37211 m -12.27929,-0.18607 c -0.0334,0.46803 -0.19294,1.58918 -0.74393,1.30252 m 5.39543,-1.30236 0.93027,1.67445 m -27.53537,-1.48839 0.3721,0.93024 m 14.32582,-0.93024 -0.55814,2.2326 -2e-5,0.18603 -2e-5,0.18603 m 13.39558,-2.60469 0.55815,1.11631 m 1.30234,-1.11631 0.18606,0.37209 m 5.39544,-0.37209 h 0.3721 m 2.6047,1e-5 0.37209,0.37208 m 5.02335,-0.37209 -0.37206,0.74422 m -85.210809,-0.55815 c 1.422296,1.04165 3.22028,0.82971 4.837304,0.3721 m 51.349735,-0.3721 0.18605,1.67444 m 18.41893,-1.67443 v 0.37209 -0.37209 m 6.32569,-1e-5 2.04655,1.67444 m 59.16383,-1.67444 c 0.14736,1.81308 1.09168,2.77342 2.60469,3.72099 0.49731,-1.18989 0.62651,-2.07349 -0.18606,-3.53495 m -80.37349,0 -2.04654,3.90705 m 12.83743,-3.90705 0.7442,1.11631 m 3.721,-1.11631 1.30251,0.74392 m 54.51258,-0.3721 c 2.00749,-0.5682 4.71668,-0.37211 6.69779,-0.37211 m 3.90705,0 4.65125,0.18606 m -112.374062,0 -1.11631,2.41864 c -0.88903,-0.36694 -1.52381,-0.53278 -2.6047,-0.74419 m 117.025312,-1.67445 3.721,0.18605 m -101.58319,0 0.18607,0.3721 m 10.97693,-0.3721 0.74419,0.3721 m 2.97681,-0.3721 -0.18605,0.74419 -0.3721,-0.55815 m 6.69779,-0.18604 1.1163,1.4884 m 4.83729,-1.4884 0.18605,0.18605 m -27.72185,1.3e-4 c -0.0615,1.13207 -0.19426,2.03043 -0.13723,3.34906 0.0836,1.9324 0.54505,3.28957 0.13723,5.02318 l -0.18605,-0.74419 m -9.67458,-7.44198 0.18604,0.37208 m 30.69822,-0.37209 0.93025,2.04654 m 7.62804,-2.04653 -0.93025,0.18604 m -22.32597,-1e-5 -0.18605,1.48841 m 9.30249,-1.48841 0.18604,0.7442 -0.37209,-0.55815 m 5.20939,-0.18605 0.3721,0.93026 m 7.06989,-0.93025 1.1163,1.11629 m -45.210102,-0.93025 -0.3721,1.1163 m 26.977222,-1.1163 v 0.55815 m -27.535362,-0.37209 v 0.55815 m 30.884262,-0.55815 v 0.37209 -0.37209 m -81.117706,0.18604 c 0.651314,0.19253 0.961543,0.27589 1.860495,0.37211 m 71.815221,-0.37211 0.55815,1.30235 m 2.97679,-1.30235 0.37211,0.55815 m 3.90704,-0.55815 0.7442,0.93026 m 5.58149,0.37209 -0.37209,-1.30235 0.55813,0.37212 m 8.74435,-0.37211 0.18603,2e-5 m 1.8605,0 1.67444,1.30235 M 35.727175,167.1268 c 0.0649,1.86018 -0.434361,6.03933 2.232597,6.51175 m 68.280268,-6.51175 v 1.67445 m 22.32597,-1.67445 1.30234,2.2326 m 3.90706,-2.2326 0.18604,0.3721 m -16.55842,-0.18604 -0.74392,1.3025 m -3.90704,-1.1163 0.37208,0.37211 m 2.9768,-0.37211 1e-5,0.37211 m 0.55815,-0.37211 0.3721,0.37211 m 6.51173,1.30234 -0.55815,-1.67445 0.55816,2.41865 M 3.9126631,167.68495 c 2.719694,3.2e-4 5.565922,-0.003 8.1856869,0.81438 1.154824,0.36028 2.677016,1.06866 2.96231,2.37128 0.266587,1.21721 -0.82316,2.24231 -1.683045,3.02096 -2.418773,2.19027 -5.4466499,3.86626 -8.3486529,5.32847 m 108.6530679,-11.53509 -0.7442,0.3721 v 0 m -25.674872,0.7442 0.55816,-0.7442 m 24.558562,0 0.37211,0.3721 m 4.09309,-0.3721 0.3721,0.55815 m -31.628472,0 1.67445,-0.3721 m 0.7442,0 0.3721,1.4884 0.558152,-1.4884 m 15.62818,0 -0.74419,1.67445 m 24.74462,-1.67445 0.74419,1.1163 m 7.81409,-1.1163 c 0.4655,1.26748 0.91489,2.18619 1.4884,3.721 m 38.1402,-3.53494 0.3721,0.55815 m -64.93136,-0.37211 -0.3721,1.8605 m 3.53494,-1.8605 -0.18605,1.67445 m 6.13964,-1.67445 0.55815,1.1163 c 0.17483,-0.45402 0.23765,-1.04016 0.7442,-0.55815 l 0.18605,0.18605 -2e-5,0.18604 m 72.93151,-0.55815 c 2.98243,0 6.92477,-0.26453 10.04669,-0.37209 m -123.909152,2.04654 3.16285,-1.8605 m 43.349602,0.37211 1.48839,1.1163 0.18607,1.67444 m -92.838859,-2.41865 0.744204,-0.18605 m 71.629165,0 0.18605,2.41865 m 11.16298,-2.2326 0.55815,1.4884 m -33.116862,-1.30235 0.558162,1.30235 m 15.81422,-1.30234 -0.7442,1.86049 m 10.41879,-1.8605 v 1.1163 m 7.06989,-1.1163 v 0.7442 m -14.32583,-0.55815 -0.18605,1.1163 m 13.20954,0.7442 -0.18605,-1.8605 0.55815,1.30235 m 1.67445,-1.30235 -2e-5,0.18604 m 11.53507,-0.18606 1.11629,1.30236 m 43.7217,-1.30235 1e-5,0.74419 m -51.5358,-0.55814 1.30237,1.4884 m -0.55815,-1.4884 1.48839,1.30235 m 0,-1.1163 0.3721,0.7442 m -25.48883,-0.55815 v 0.3721 m 4.27916,-0.3721 c 0.1755,0.74419 0.3014,1.14053 0.55815,1.8605 m 10.41879,-1.8605 -0.3721,1.8605 -0.37211,-0.93025 m -4.83728,-0.7442 v 0.7442 m 12.46533,-0.74421 0.74418,1.67446 m -18.04681,-1.4884 v 0.3721 m -20.09338,-0.18605 0.55815,1.1163 0.3721,-0.93025 m 28.27956,-0.18605 10e-6,2.04655 m 8.93038,-2.04655 0.37211,1.1163 m 6.69778,-1.1163 c 0.54398,1.86806 1.06109,3.23919 2.2326,4.83729 m -32.93077,-4.65122 0.7442,1.30235 m 21.76783,-1.30234 0.55815,0.74419 m 10.79088,-0.7442 1.1163,1.11631 m -56.931232,-0.93026 -0.18605,2.41864 m 32.000572,-2.41864 v 0.55815 m 7.44198,-0.55815 v 0.3721 m -29.95401,-0.18605 -0.55816,2.23259 -0.74419,-1.48838 m 14.51188,-0.74421 -0.93025,1.1163 m 4.8373,-1.11629 0.3721,1.67443 m 0,-1.67444 v 0.55815 m 17.11658,0.18605 v -0.74419 l 0.93025,0.93024 m 7.44199,-0.7442 1.11627,0.74424 m -119.257883,-0.55819 0.186051,2.97679 m 101.769232,-2.97678 -0.55815,1.48839 -0.18605,-1.30235 m 7.62804,1.30235 v -1.48839 l 0.93025,1.30233 m 51.72183,-1.30234 -0.3721,0.3721 m -64.55926,-0.18605 -0.3721,1.11629 m 23.62831,-0.93023 0.93025,1.30234 m -28.65166,-1.11629 c -0.25815,1.16019 -0.39243,1.97256 -0.55815,3.16284 m 27.90747,-3.16285 0.55815,0.55815 m -32.00057,-0.37211 -2e-5,0.18605 m 3.53494,-0.18606 0.18606,1.1163 m 8.37223,-1.1163 0.55815,1.30236 m 6.51175,-1.1163 0.74419,1.1163 m 10e-6,-0.55815 0.55814,-0.3721 m 10.60484,-0.18605 0.37211,0.37209 M 85.960608,173.0804 c -0.46266,1.1167 -1.05527,1.99579 -1.67444,3.16285 l -0.55815,-0.3721 m 20.279422,-2.23259 0.7442,-1e-5 c -0.26258,1.33374 -0.19062,2.43657 -0.93024,3.721 m 18.79102,-4.0931 -0.37209,1.30236 -0.37212,-0.74422 m 11.72115,-0.55815 1.4884,1.67445 m 0.55815,-1.67444 0.18604,0.18604 m -99.536626,10e-6 -0.744197,0.18605 m 79.071153,-0.18605 v 1.1163 m 14.51188,-1.1163 2.04655,2.79075 m -127.0719959,0.55814 5.9535929,-3.16284 m 96.745883,0 v 0.3721 m 14.51188,-0.18606 v 1.1163 m -86.141045,-0.93024 c 0.975741,0.27773 1.571088,0.35143 2.790747,0.37209 m 52.466038,-0.37209 0.55815,3.90704 m 43.90774,-3.90703 -0.37209,0.37208 m 1.30234,-0.37209 1.8605,2.60469 m -46.14034,-2.41864 -0.7442,1.4884 m 23.07018,-1.4884 -0.18606,0.7442 -0.18605,-0.3721 m 7.0699,-0.3721 c -0.11021,0.55075 -0.17253,0.74702 -0.74421,0.74419 l -0.37209,0.93026 -0.18605,-0.55816 m 20.27942,-1.11628 v 0.55814 m -68.094222,-0.37211 c 0.54158,2.09135 2.6923,0.78657 3.91014,2.26341 1.03248,1.25204 0.25377,3.88288 0.56745,5.24984 0.19213,0.83726 0.77947,0.77658 1.476,0.48691 1.31813,0.36013 2.00113,0.26655 2.97679,0 1.95197,2.61295 4.5559,5.61719 5.99439,8.55829 0.97379,1.99096 0.47501,3.86357 1.81971,5.76754 -1.13844,1.21277 -1.56415,2.19651 -1.4884,3.72099 2.192282,0.166 4.710152,0.42395 7.069782,0.52706 1.84707,0.0807 2.92715,-0.0822 4.09321,-1.64334 1.15441,0.0372 1.93186,-0.31277 2.79075,-1.4884 M 81.123308,174.38275 v 1.30236 l 3.53495,-0.74421 m 18.418932,0.18607 0.74421,-0.74421 m 0.18603,0.18605 0.18605,0.74419 m 0.74421,-0.74419 -0.37214,0.74417 m 15.25608,-0.74419 v 0.37209 m 9.48854,-0.18605 1.1163,1.8605 m -0.18605,-1.8605 -0.3721,0.37211 m 43.53564,0.37209 c 2.79834,0.16433 7.11919,-0.3601 10.23274,-0.51747 7.39167,-0.37358 14.7514,-0.0425 22.13992,-0.0407 m -75.72224,0 0.55815,0.55815 m -17.86078,-0.3721 -0.74421,0.3721 m 8.5583,-0.18605 -0.3721,0.18605 m -16.18634,0 0.55815,0.7442 m 10.79089,0.93024 v -0.93024 l 1.4884,1.30235 0.18605,-1.4884 1.1163,0.55815 0.3721,-1.1163 0.18605,0.18605 0.18605,0.55814 m 9.30248,-0.74419 0.18606,1.48839 m -11.34904,-1.30235 v 0.3721 m 12.46534,-0.3721 0.74419,1.48839 m 0.37211,-1.48839 0.18604,0.18605 m -55.070692,2e-5 c 1.70048,0 3.5089,0 5.20939,0 m 31.628462,0 -0.37209,0.18605 m 3.16284,-0.18605 v 0.3721 m 10.79089,-0.3721 1.30235,1.67445 m 1.67444,-1.67445 0.18605,0.55815 m 9.67459,-0.55815 1.1163,1.30234 m 29.95401,-1.30234 h 1.30235 m -78.8851,0.18605 c -1.06407,2.23581 -0.63527,4.87315 -0.18605,7.06989 l 0.55813,-1.11631 m 11.16299,-5.95359 -1e-5,0.55815 m 1.30235,-0.55815 -0.37209,0.3721 m 3.53494,-0.3721 v 1.4884 l 0.74425,-1.11627 M 88.379288,196.7087 c 3.547842,-0.72613 3.901782,-3.53339 1.824102,-6.32569 -3.284582,-4.41428 -7.091682,-8.71347 -10.010292,-13.39558 l 2.23259,-0.7442 m 2.2326,0 c 2.16794,1.72376 6.603872,5.53335 8.186192,3.72099 m 18.04683,-3.72099 -1.1163,2.2326 m 1.4884,-2.2326 -0.18604,0.7442 m 16.18632,-0.7442 1e-5,0.74423 m 0.55814,-0.74419 0.37209,1.67444 m 1.11631,-1.4884 0.55815,1.8605 m -4.09309,-1.4884 c 0.19446,0.45474 0.33736,0.84647 -0.37213,0.55813 v 0 m -95.07144,3.3489 0.744203,-0.18605 c -0.895958,-0.39516 -2.154341,-2.73706 -0.584111,-3.15252 1.129328,-0.29879 2.24799,0.77498 3.002756,1.29202 m 71.257062,-1.67445 c 0.0606,0.97153 0.14747,1.42747 0.3721,2.2326 l 0.55815,-2.2326 m 17.67473,0 -0.55816,1.30235 m -46.698492,-1.1163 c 1.87303,1.2021 2.97138,3.20775 4.27915,5.02334 m 41.675152,-5.02334 -0.18605,1.1163 m 6.88384,-1.11629 0.55815,0.55814 m -4.83729,-0.37209 v 0.37209 m 10.79088,-0.3721 2.9768,3.90705 m -106.234423,-3.721 c -1.464479,0.61777 -1.507879,1.32144 -1.116299,2.79075 m 60.280132,-2.79074 0.3721,-1e-5 m 15.25608,1e-5 c 0.0664,0.98755 0.30258,0.88557 0.22223,1.67444 -0.0617,0.60602 0.15457,1.05022 0.52197,0.93025 m 5.95359,-2.6047 1.67445,0.55815 m 7.44199,-0.55815 -0.18605,0.7442 m 1.67445,-0.7442 -0.18608,0.37209 m 31.44241,-0.18605 1.48841,-0.18605 m -48.559,0.18605 v 0.3721 m 12.27929,-0.3721 v 0.3721 m -7.0699,-0.18605 c -1.20673,0.79103 -2.33802,1.63547 -3.53494,2.41865 l 1.4884,0.18605 m 9.86063,-2.6047 v 0.3721 m 7.81409,-0.3721 0.18606,0.7442 m -97.676134,-0.55815 0.558149,0.55815 0.558149,-0.55815 m 74.605956,0 -0.37209,0.3721 m 27.90745,-0.3721 0.55816,1.8605 m -28.83771,-1.4884 -1e-5,0.93025 m 29.02377,-0.93025 0.18605,0.18604 m 14.88399,0.18605 1.11629,-0.37209 m -119.443932,0.18606 1.1163,0.18605 m 58.977782,-0.18605 -0.7442,0.93025 m 44.09379,-0.93025 1.67445,3.16285 m -123.537051,-2.9768 c 1.630871,0.6712 2.981683,1.1653 4.093096,2.6047 l -1.674448,0.74419 m 21.767825,-3.34889 c -0.02679,1.16754 0.365834,3.4016 -0.531414,4.30956 -1.095038,1.1081 -3.865926,0.49603 -5.23613,0.39185 -1.194385,-0.0908 -2.497358,-0.0342 -3.64847,0.33632 -1.310153,0.42177 -3.565491,1.88172 -4.218112,3.1028 -1.052793,1.96979 2.356279,1.71834 3.401409,1.72036 3.833767,0.007 7.716488,0.87559 10.976922,-1.48864 l -0.558159,-1.11631 v 0.3721 h 0.372102 m 80.37351,-7.62804 h 0.18604 m 17.67473,0 0.18605,0.55815 m -27.90746,-0.3721 -0.18607,0.37209 m 2.97679,-0.3721 h 0.55815 m 5.9536,0 -2e-5,0.18604 m 16.18632,-0.18605 0.55814,2.04655 m 3.34891,-2.04655 0.55815,0.93025 m -105.490185,-0.74418 -0.372095,0.18605 m 72.37336,-0.18605 1.67445,4.27915 0.55815,-1.67444 m 8.18619,-2.23261 h 1.4884 m 2.6047,-0.3721 -0.18605,0.7442 1.67445,0.18605 -2e-5,0.18604 0.18604,0.18605 -2e-5,0.18603 m 8.1862,-1.48839 1.11629,1.67445 m -26.23302,-1.48841 v 0.7442 m -100.8389779,-0.3721 0.372099,-0.18605 m 48.7450369,0.18605 -1.674448,0.18605 1.674448,-0.18605 m 53.210242,-0.18605 -0.18605,0.7442 m 12.65138,-0.7442 -0.5581,0.93028 c -0.46012,-0.69017 -0.18606,-0.13099 -0.18606,-0.55815 m 16.18632,-0.37211 0.55815,1.1163 m 12.65139,-0.3721 1.1163,-0.7442 M 3.9126631,179.77819 h 0.186053 m 29.9540139,0 -0.55815,1.4884 0.55815,-1.30235 m 18.418929,-0.18605 v 0.3721 m 64.187171,-0.3721 -0.7442,0.3721 m 3.16285,0.55815 0.3721,-0.93025 0.37209,0.3721 m 2.41866,-0.3721 0.18604,0.55815 m 1.4884,-0.18605 -0.18604,-0.3721 1.48839,1.4884 M 12.098852,179.96424 c 1.610616,0.91071 3.491559,1.68297 5.395444,1.30235 m 16.000282,-1.30235 0.186047,0.18605 m 45.024053,-0.18604 c -0.83994,0.49479 -1.37002,0.89 -1.30237,2.23257 m 26.605112,-2.23259 0.55815,1.30235 m 18.23288,-1.30235 0.3721,0.93025 0.18605,-0.55815 m 1.4884,-0.3721 1.1163,1.67444 m 3.72099,-1.67444 1.1163,1.4884 m 6.32569,-1.4884 h 0.3721 M 36.285328,180.5224 c 0.68707,0.0431 0.663601,0.31564 0.744194,0.74419 -0.863526,-0.43021 -1.419497,-0.60332 -2.418646,-0.55815 m 2.418646,-0.55815 h 0.93025 m 79.443258,0 0.18605,0.93025 0.55815,-0.55815 m 1.67444,-0.3721 v 0.3721 m 10.60484,-0.3721 v 0.3721 m 8.00014,-0.3721 0.3721,0.55815 m 1.8605,-0.55815 1.30236,0.74418 m -21.39572,-0.55815 v 0.3721 m 0.37209,-0.3721 v 0.3721 m 0.3721,-0.37209 v 0.3721 m 2.41865,-0.37211 0.18605,0.7442 m 1.4884,-0.55815 0.93025,0.3721 m 10.97693,-0.55814 0.3721,0.37209 M 30.145682,180.52239 c -1.522744,1.19997 -2.211461,1.87771 -3.348896,2.9768 l 0.93025,0.18604 m 86.699194,-2.97679 c 0.90679,0.25318 1.24466,0.66016 1.67445,1.48839 m 1.67445,-1.67444 0.18605,0.18605 m -86.885248,0 2.232598,0.7442 m 4.09309,-0.7442 0.558152,0.18605 m 69.024468,-0.18604 -0.55815,0.74419 m 4.0931,-0.7442 c -0.65706,0.68105 -1.02741,1.14993 -1.30235,2.04654 l 0.55815,-0.37209 m 25.11671,-1.67445 0.55815,2.41865 m -104.74602,-2.2326 -2.232597,1.30234 m 7.628039,-1.30234 c -1.480394,1.15504 -2.491911,1.66668 -3.720994,2.6047 m 43.72169,-2.6047 0.93026,1e-5 m 60.466172,-1e-5 -2e-5,0.18604 m -106.978597,1e-5 0.744197,2.04655 m 116.09506,-2.04655 c 0.87622,1.53492 2.56105,2.10314 4.46517,2.53063 3.24326,0.72803 6.56102,1.14271 9.86063,1.51855 14.46388,1.64744 29.55329,2.55381 44.09381,1.7184 M 18.052445,181.45264 c 2.97066,-0.25469 7.158725,-0.18605 10.418788,-0.18605 m 7.441993,1e-5 0.744194,-1e-5 m 0.372102,0 0.930246,0.37209 m 75.164112,0.37211 2.2326,-0.7442 m 18.97707,0 0.55815,0.93024 m 7.0699,-0.93024 c 0.41591,1.4351 0.71778,3.34203 0.93025,5.02334 m -109.769375,-4.83729 -1.116298,1.1163 m 83.536353,-1.1163 -0.37213,0.55814 m -83.722399,0 0.930251,0.18604 m -28.2795379,4.46521 c 2.137879,-0.91923 4.472813,-1.53272 6.3256909,-2.41865 0.207279,-1.7159 2.241579,-1.94407 4.093094,-2.6047 m 100.094781,0.18606 -0.3721,0.37209 m -86.699198,0.18606 0.744205,-0.3721 m 43.163541,0 0.18605,1e-5 m -44.465891,0.55814 0.372095,-0.18605 m 81.303758,0 c -0.19198,0.36992 -0.37989,0.76239 0.3721,0.37209 l -0.3721,1e-5 m -87.443401,0.93024 1.116299,0.18605 c -2.64341,0.40565 -6.88045,0.13998 -9.116436,-0.18605 l 2.418646,-1.11629 m 10.604835,0.55815 10e-7,0.74419 -0.744198,-0.55815 1.488401,-0.74419 m 40.372791,0 0.18606,1e-5 m 52.279992,0 0.37208,0.55815 0.74422,-0.37211 m 24.55856,-0.18604 c 0.0151,2.03318 0.74197,3.22623 1.14924,5.02334 0.45814,2.0216 0.24148,5.56 -0.0329,7.44198 l 1.67445,0.55815 c 0.2621,-1.79751 0.18605,-5.22875 0.18606,-7.62803 8.97548,2.34658 18.45516,3.47808 27.72141,4.05701 3.61458,0.22584 7.32152,0.39246 10.97694,0.41001 3.84203,0.0184 7.67643,0.18131 11.53508,0.18449 2.2793,0.002 4.62486,0.0334 6.88384,-2.7e-4 M 15.447748,182.75498 c 2.031077,0.40077 4.420032,0.0399 6.697795,0.37211 m 95.815637,-0.37211 c 0.20457,0.36699 0.26359,0.57346 0.74419,0.37211 m 5.5815,-0.37211 1.1163,0.93025 m 4.65125,-0.93025 0.93024,0.93025 m 2.6047,-0.93025 0.18605,0.37211 m 0.55814,-0.37211 0.55815,1.67445 m -59.349872,-1.48839 c -0.5301,1.65962 -1.59183,2.80934 -3.1635,3.5073 -1.46922,0.65249 -3.24914,0.83176 -4.83664,1.04433 -5.5076,0.73744 -11.22595,0.94003 -16.74448,0.57107 -1.981102,-0.13245 -4.214155,-0.47685 -6.139646,-0.47146 l 0.930248,0.3721 m 62.14063,-5.02334 0.55815,0.18605 m 2.9768,1.11629 2.04655,-1.30234 m 5.76754,0 v 0.37209 m 0.74419,-0.37208 v 0.55814 m 3.90705,-0.55815 0.7442,0.55815 m 16.93053,-0.55814 0.93025,1.1163 M 22.145543,183.12709 c 0.754484,0.0267 1.173524,0.0548 2.046543,0.18604 l -1.488394,0.74421 m 1.674448,-0.74421 h 1.302346 m 66.419774,1e-5 c 0.28715,2.09272 -0.012,6.32482 -0.18605,8.74433 m 16.18633,-8.74434 c -0.33294,0.33295 -0.0879,0.34282 -0.55815,0.18606 m 1.1163,-0.18606 c -0.38369,1.34128 -0.55677,2.71137 -0.3721,4.0931 l 0.93025,-0.93025 m 6.88384,-2.6047 h 0.93025 l 0.18605,-0.18605 -0.3721,-0.18604 m 11.72114,-0.18606 0.93025,0.93025 m 3.90705,-0.93025 1.30233,2.41865 m -124.467294,-2.23259 1.302347,0.55815 -1.116298,0.18604 m 1.302348,-0.18604 1.674449,-0.55815 m 11.162987,0 c -10e-7,0.6638 0,1.18153 -10e-7,2.60469 m 13.395584,-2.60469 c 0.624652,1.19627 0.996015,2.14013 0.930255,3.3489 m 64.931373,-3.3489 c 0.392,1.3938 1.44524,2.40583 2.23258,3.34889 l 0.18606,-1.1163 m -74.97806,-2.04655 h 0.372102 m 71.443108,0.18605 0.3721,0.93025 0.37211,-0.3721 m 25.67487,-0.55815 0.37209,0.3721 M 26.610738,184.05734 v 0.74419 m 54.88468,-0.55815 c -1.10392,0.56928 -2.14255,1.12482 -3.34905,1.63483 -3.6428,1.53988 -8.26573,3.17664 -12.09308,4.50483 0.49625,1.34322 0.0345,2.77031 1.30235,3.34888 l -1e-5,51.16369 v 5.2094 l 1e-5,11.34903 -1e-5,3.53495 v 17.86078 m 62.140642,-98.60639 v 0.37211 M 11.168603,184.42943 c -0.01414,0.9664 -0.01295,1.57951 0,2.79075 0.573157,-0.33373 3.783375,-2.18436 3.783372,-0.30895 -2e-6,1.54626 -1.664302,1.19202 -2.794843,1.38747 -0.995556,0.17211 -1.474513,1.19859 -2.3971349,1.5213 -1.639168,0.57334 -3.904149,0.19092 -5.661284,0.19092 m 63.4429749,-5.58149 h 0.37209 m 7.442,0 c 1.51422,0.4286 2.85279,0.37184 4.27914,0.37211 m -51.907881,-0.18605 c 2.359507,0.73344 4.836733,0.66719 7.255941,0.55814 -0.951687,0.43977 -1.677187,1.30564 -2.67924,1.6464 -2.002534,0.68102 -5.496307,0.21109 -7.553503,0.2141 m 96.001685,-2.41864 2.04655,0.74419 m -13.76768,-0.55815 -0.3721,0.3721 m 12.27928,-0.3721 -0.74419,0.18605 m 3.34889,-0.18605 0.18605,0.55815 m 0.37212,-0.55813 0.74421,0.7442 m 1.48839,0 c -0.21214,-0.51218 -0.14008,-0.58423 0.37211,-0.3721 m 1.11629,-0.3721 0.3721,0.55815 -0.93024,-0.3721 m 2.79074,-0.18605 c 1e-5,0.45163 0.0275,0.39231 -0.3721,0.18605 m -26.23302,0 -3.00247,6.79306 -2.57902,7.53278 m 10.04669,-14.32584 v 0.3721 m 6.32568,-0.3721 -1.30234,1.4884 m -84.280553,-1.30235 -0.930244,1.67445 m 10.976929,-1.67445 -0.558143,0.55815 0.930245,0.18605 m 80.559566,-0.7442 v 0.3721 m -90.23415,-0.18605 -0.930251,0.3721 -0.186047,-0.18605 m 1.860496,-0.18605 c -0.371435,0.37144 -0.186726,0.18672 -0.55815,0.55815 m 78.326962,-0.55815 -0.3721,0.3721 m -97.117989,-0.18605 h 0.558149 m 107.16467,0 -0.7442,0.18605 m 10.79088,-0.18605 0.37212,0.3721 m 16.93052,-0.3721 c -6.4e-4,1.42118 -0.10485,3.09319 -0.18157,5.39526 -0.0485,1.45358 -0.15054,2.48749 -1.30683,3.16303 M 9.6802061,185.73178 h 0.186053 m 24.0004179,0 c 1.325803,1.22968 2.332824,1.01697 4.093091,0 m 74.419912,0 v 0.3721 -0.3721 m -74.605954,0.18605 0.186046,0.3721 m 74.605958,-0.3721 h 0.3721 m -84.094495,0.18605 v 0.7442 m 10.418784,-0.7442 c 1.994397,0.76431 3.465019,0.58083 5.209395,1.48841 m 88.001546,-1.48841 1.86049,2.04655 m -22.32597,-1.8605 -0.55815,0.7442 m -75.350163,-0.18605 1.674455,-0.3721 m 78.513008,0 -0.18607,0.37209 m 26.97721,-0.3721 0.55815,0.55815 m -139.7233559,-0.37209 0.186047,1e-5 m 30.3261159,0 -0.93025,0.3721 m 6.139637,-0.3721 -0.558144,0.55815 m 44.279848,-0.3721 c -2.69496,1.47106 -7.01501,3.02371 -10.23274,4.31764 -1.98025,0.7963 -3.98889,1.55668 -5.76754,2.5662 m 64.187172,-6.88384 1.11629,1.8605 -0.93024,-0.55815 m -117.583459,0.37209 c 1.514927,0.22086 3.082339,0.29468 4.837293,-0.0372 1.99782,-0.37778 3.5047,-1.09898 5.023344,-1.45122 m 17.302631,0 1.116301,0.18605 m 64.00112,-0.18605 0.7442,0.7442 0.7442,-0.7442 m -0.55815,0 -2e-5,0.18604 m 11.90718,-0.18605 0.37212,1.48841 m 12.83743,-1.48841 0.74419,0.7442 m -121.118388,-0.55814 0.930249,1.1163 m 93.024889,-1.1163 c -0.79789,2.03031 -2.12158,5.98595 -2.91119,8.3722 -0.26821,0.81051 -1.07108,2.24589 -0.63229,3.07913 0.66886,1.27012 4.30574,0.60704 5.58975,0.65725 0.91396,0.0357 2.00524,0.15349 2.66845,-0.62073 0.73197,-0.85451 0.44123,-2.16062 0.49468,-2.92956 m 16.37237,-8.55829 1.30236,0.74419 m 2.6047,-0.7442 0.18604,0.3721 m 15.44214,-0.3721 1.48839,0.7442 M 10.982553,187.40623 v 0.7442 m 32.558708,-0.7442 0.744202,0.3721 m 73.117567,0.18605 0.18605,-0.55815 0.55815,0.93026 m 0.18605,-0.93025 0.18605,0.18605 m 1.67445,-0.18605 c 0.92056,0.51312 1.78368,0.62444 2.79073,0.18604 m 16.18634,-0.18605 1.1163,2.41865 m -112.746169,-1.8605 v -0.3721 l 0.744203,0.37211 m 8.372229,-0.3721 4e-6,0.93025 m 5.76755,-0.93025 h 0.930239 m 64.931374,0 c -0.20064,1.49837 0.12379,3.35473 0.37211,4.8373 l 1.30235,-1.4884 m 12.09322,-3.3489 0.18607,0.18604 m 7.06988,-0.18605 2.6047,1.67445 m -24.00042,-1.30234 c -0.52803,0.38995 -0.81473,0.78786 -0.89308,1.69826 -0.1828,2.12566 -0.22326,7.58948 -0.22326,9.4647 M 32.750338,187.96436 h 2.046544 m 88.187588,0 0.3721,0.3721 m 0.93025,-0.3721 0.74421,1.4884 m -112.374073,-1.30235 -0.372097,0.55815 h 0.55815 m 118.88581,-0.55815 0.18605,0.55815 m 10.04669,-0.55815 c 0.93655,1.36243 2.40808,2.9726 1.11629,4.09309 m -17.30263,-3.90704 1.30235,1.4884 m 11.34904,-1.4884 c 0.34702,0.82237 0.57095,1.28014 0.93025,1.67444 m -23.07013,-1.30232 c 0.35063,-0.0619 0.30082,-0.12281 0.3721,0.18605 l -0.7442,0.93025 m 14.69794,-1.30235 0.55814,0.55815 m 1.8605,-0.55815 0.3721,0.7442 m 10.04669,-0.7442 0.18604,1.1163 m 6.6978,-1.1163 c 0,1.38643 -0.0482,2.96682 0.0111,4.83241 0.02,0.62703 0.0333,2.01532 0.86837,1.91281 0.74827,-0.0919 0.76047,-1.31117 0.78177,-1.91442 0.061,-1.69751 0.0132,-3.06578 0.0132,-4.27265 m -139.723409,-0.3721 -0.744198,0.93025 c 3.199936,0.90567 7.99945,0.21195 11.721139,0.44544 4.208836,0.26405 8.561056,0.11271 12.837432,0.11271 h 20.279424 c 3.28574,0 6.43704,0.1264 9.67459,0.18605 m 43.163552,-1.67445 -0.93025,1.30234 m 15.62818,-1.30234 0.18605,0.18606 m 1.1163,-0.18605 0.7442,0.37209 m 13.20953,-0.37209 0.3721,1.1163 m -24.37252,-0.93026 -0.37211,0.3721 m 15.44214,0 1.67445,2.41865 m 6.13964,-2.41865 0.37209,0.55815 m 2.41866,-0.55815 c 0.34725,1.35169 0.43677,2.27504 0.93025,3.53494 m 11.90718,-3.34888 c 0,1.99214 0.76288,5.31112 -1.67445,6.32569 m 3.3489,-6.13964 c 0,1.92984 -0.0443,3.81591 0.18605,5.39543 l -1.8605,0.3721 m -23.44227,-5.58148 0.55814,0.55814 m 7.25595,-0.55814 0.55814,2.23258 M 3.9126631,190.01092 h 0.186053 m 7.2559399,0 c -0.62344,2.75528 -1.144788,6.06599 -0.744199,8.93039 2.482287,-0.36196 7.733116,-0.18604 10.97694,-0.18604 3.320466,0 6.344727,-4.8e-4 9.674584,2e-5 2.111583,3.1e-4 3.906259,0.16048 5.953589,0.18178 4.863783,0.0506 9.824818,0.004 14.69794,0.004 3.100442,-1e-5 6.201738,0.0155 9.302088,-0.001 1.19189,-0.006 2.71978,0.0878 3.03886,-1.35896 0.19146,-0.86813 0.3419,-2.57583 -0.40361,-3.23469 -0.75547,-0.66765 -2.267,-0.42768 -3.19305,-0.42822 l -8.186144,-1e-4 c -1.583085,0 -3.271602,0.0296 -4.837295,-0.0181 -1.282607,-0.0391 -2.388914,-0.15536 -3.720995,-0.16519 -1.62038,-0.012 -3.040222,-0.003 -4.651247,-0.003 -5.560392,0 -11.1786,0 -16.744476,0 -3.342562,0 -8.909795,0 -11.721134,0 m 94.327233,-3.7209 c 0.514,1.81605 0.3721,6.61675 0.3721,9.11645 m 9.86064,-9.11645 -0.3721,0.93026 m 42.04725,-0.93026 c 0,1.57952 -0.0754,3.23017 0.18605,5.02335 2.92042,-0.63816 2.6049,-2.03894 2.60469,-4.65124 M 10.238355,190.19698 c -0.7952469,4.37914 -1.0335489,8.44102 -0.136735,12.83743 0.594345,2.91364 1.656543,5.82033 2.192772,8.74434 0.193338,1.05426 0.32593,2.0994 0.318903,3.16285 -0.0067,1.01087 -0.117503,1.96601 -0.289818,2.97679 -0.463469,2.71867 -1.5292,5.47464 -3.9535299,7.06862 -1.424543,0.93663 -2.790891,1.09898 -4.271234,0.93153 m 109.9554169,-35.72156 -0.55815,1.30235 m 25.11672,-1.30235 0.3721,0.93024 0.37214,-0.74417 m 0.37209,-0.18605 0.37211,1.1163 m 0.3721,-1.11629 -2e-5,0.18603 m 18.04683,-0.18605 c -1e-5,1.16853 -1e-5,2.15031 -1e-5,3.72099 m -27.90746,-3.16284 h 0.37209 m 1.48841,0.37209 -0.18605,-0.74419 1.67445,1.1163 m -1.11631,-1.1163 0.37211,0.55815 m -18.79104,-0.37211 -0.55813,2.2326 m 23.81436,-2.2326 -1e-5,2.04655 -0.37209,-1.11629 m 24.00042,-0.93026 c 7.1e-4,1.4173 -0.0111,2.43478 0.18605,4.0931 l -0.18605,0.18605 -0.18605,0.18605 h -0.18605 m -30.3261,-4.09309 0.55814,0.18604 m 1.67445,-0.18604 v 0.3721 m 1.1163,-0.3721 0.18605,0.3721 m -11.90718,-0.18606 -0.74421,0.18606 m 3.53495,-0.18606 -0.18605,0.74421 -0.55815,-0.55815 m 1.67445,-0.18606 0.3721,0.74421 m 3.53494,-0.74421 1.1163,1.1163 -0.7442,-0.93024 m 0.55814,-0.18606 -0.37209,0.37211 m 0.7442,-0.37211 0.3721,1.4884 m 7.44199,-1.4884 0.18605,0.93025 m 24.37252,-0.93025 c 0.005,0.88289 -0.24459,2.95644 0.83876,2.71726 0.72436,-0.15991 0.64234,-1.72628 0.64964,-2.5312 m -44.65197,0.55814 c -0.18473,-0.92369 0.74686,0.42751 0.93025,0.74419 m 1.67445,-1.30234 1.4884,1.30235 m 8.00014,-1.30235 0.93025,0.18605 m -0.55815,-0.18605 0.3721,0.37209 m 33.48895,-0.37209 c 0.0221,1.48045 0.0219,2.36183 1.48841,2.79075 0,-0.90862 0,-1.45681 -10e-6,-2.6047 m -48.74503,0 0.55815,1.11629 -0.93025,-0.93025 m 9.11643,-0.18604 0.74421,1.30234 m 0.37206,-0.74422 -0.37209,-0.3721 0.93024,0.3721 m 39.81465,-0.55814 c -0.0292,1.24348 -0.07,2.17839 -1.30235,2.79074 m -81.303722,-2.60468 c 2.737472,0.27168 1.955962,2.5691 1.67445,4.65125 m 33.675012,-4.65125 -2e-5,0.18605 m 4.46519,0 0.74419,0.18604 m 6.6978,-0.3721 -0.3721,0.3721 m 1.1163,-0.3721 0.37209,1.30236 -0.37209,-1.30236 m 36.09365,0 c -0.0707,1.29636 -0.25805,1.97248 -1.30235,2.6047 m -81.489792,-2.41864 -1e-5,0.74419 m 30.326122,-0.74419 0.3721,1.1163 m 1.30234,-1.1163 -0.18604,0.74419 m 52.27998,-0.74419 c 1e-5,0.96282 0,1.44779 0,2.41864 l -1.4884,-0.18605 m 2.60469,-2.23259 c -0.0513,1.44926 -0.42583,2.34013 -1.48839,3.16284 m -53.95443,-2.9768 0.18605,1.48841 m 8.1862,-1.48841 -1e-5,0.37211 m 2.79075,-0.37211 0.55814,1.1163 m 0,-1.1163 0.3721,0.37211 m 4.0931,-0.37211 0.37209,0.37211 m 40.18676,-0.37211 c 0.0113,0.76888 -0.3623,2.39835 0.68499,2.55382 0.632,0.0938 0.61726,-1.88384 0.61735,-2.36778 m -86.69916,3e-5 c 0.27227,1.70343 0.17538,2.57295 1e-5,4.09309 m 27.90746,-4.0931 -1.1163,0.93025 m 61.02432,-0.93025 c -0.0327,2.2771 -0.0679,5.53227 -0.0451,8.00015 0.0402,4.36501 0.037,8.81113 0.0444,13.20953 0.004,2.1792 0.70211,5.9615 -0.89838,7.61727 -1.20993,1.25173 -3.02083,1.52533 -4.68244,1.7968 -3.81515,0.62335 -7.66564,1.02475 -11.53508,1.43682 -1.45679,0.15514 -5.2592,-0.20781 -5.79845,1.53832 -0.53149,1.72096 0.0297,3.72803 -0.66219,5.46831 -0.21952,0.55221 -0.81339,1.45263 -0.46216,2.05998 0.53861,0.93143 2.45641,0.72274 3.38786,0.73092 3.38153,0.0297 6.40589,-1.07776 9.67563,-1.1101 3.30759,-0.0327 8.42771,-1.34275 8.35927,3.15773 -0.009,0.6066 -0.008,1.31132 -0.34237,1.84293 -0.46866,0.74595 -1.47325,0.74008 -2.25351,0.75689 -2.13133,0.0458 -4.3873,0.24983 -6.50865,0.13286 -1.71998,-0.0948 -3.11461,-1.18151 -4.83729,-1.33579 -2.97182,-0.26614 -6.20617,0.45208 -9.11644,0.99564 -1.35021,0.25218 -2.94948,0.37453 -4.17626,1.01047 -0.90273,0.46796 -1.51468,1.39721 -2.33548,1.99447 0.29892,-0.98335 0.67136,-1.40729 1.4884,-1.8605 m -37.7681,-47.25664 c -0.70654,1.77691 -0.55815,4.45094 -0.55815,6.69779 m 1.1163,-6.69779 c 0.0372,0.9729 0.11465,1.52146 0.37209,2.41864 l 0.74392,-1.3025 m 33.675,-1.1163 0.18605,0.37209 -0.7442,-0.18605 m 39.25651,-0.18604 c -1.4e-4,2.46978 -0.18606,7.57893 -0.18606,10.79087 v 28.46563 m -45.02405,-39.07046 -0.37209,1.4884 m 0.93023,-1.48841 -2e-5,0.18604 m 45.39615,-0.18605 c -0.002,2.93958 -0.18605,8.0147 -0.18605,11.34904 v 21.02363 c 0,3.31825 -0.46478,7.2265 0,10.41879 3.44751,-0.84259 5.67771,0.5142 9.09214,0.70986 1.44084,0.0826 2.34688,-1.18226 3.37594,-2.11568 1.69242,-1.53514 3.57256,-3.06294 5.57854,-4.17933 0.9888,-0.55032 2.5608,-0.93805 3.08148,-2.02205 1.07774,-2.2437 0.26762,-6.48471 0.26761,-8.95124 l 3.2e-4,-17.8606 c 1e-5,-2.58603 1e-5,-5.88578 1e-5,-8.18618 m -69.21051,-1e-5 c 0.1934,0.39889 0.29835,0.45284 -0.18607,0.37209 m 40.93095,-0.3721 0.74419,-1e-5 m 13.02349,1e-5 c 1.82716,1.5566 5.86549,0.94414 8.37186,0.92853 1.21058,-0.008 2.20268,-0.0579 3.16322,-0.74247 m -76.65249,0 0.18604,0.37209 m 19.16312,-0.37209 0.55816,0.55815 m -54.88469,-0.37211 1.30235,1.4884 m -24.930672,-1.11629 -1.86051,0.37209 M 3.9126641,193.73192 c 1.985169,0 3.863418,0 5.581492,0 m 81.1177039,0.3721 c -0.16378,0.95911 -0.18376,1.4455 -0.18605,2.41865 m 13.20953,-2.41865 c 0.38896,1.37423 0.3721,3.00082 0.3721,5.02336 m 41.30305,-5.02336 1.4884,0.93025 m 13.39559,-0.93025 1.1163,0.55815 m 3.72099,-0.55815 h 1.4884 m 0.93024,0 -0.93024,0.7442 m -4.65124,-0.3721 1.48839,-0.18605 m 1.1163,0 -0.93025,0.7442 m -23.07017,-0.55815 3.16284,2.41865 -0.93025,0.18605 m -1.67445,-2.6047 0.74421,0.7442 m 2.97679,-0.55815 h 0.3721 m 14.88398,0 0.3721,-0.18605 m 13.20953,0.18605 1.1163,0.18605 m 0.55815,-0.18605 h 0.74421 m -41.8612,0.18605 1.11629,1.4884 v -1.1163 m -25.11671,-0.18605 c -0.11098,0.70734 -0.27573,1.54606 -0.34369,2.60629 -0.0729,1.13786 0.1642,2.83128 -1.00903,3.6539 -0.87894,0.61627 -2.28481,0.28562 -3.29855,0.25647 -2.5847,-0.0743 -6.65429,-0.20359 -8.55827,-0.74911 m 28.09352,-5.76755 0.3721,0.3721 -0.7442,0.18605 m 2.2326,-0.55815 1.4884,2.04655 m 14.32582,-2.04655 2.9768,1.1163 m 9.86064,-0.93025 1.30235,-0.18605 m -23.44227,0.18605 0.93024,1.8605 m 41.67516,-1.86049 0.74419,0.55814 m -57.67542,-0.3721 h 0.18604 m 0.37211,1e-5 0.74419,0.74419 m 1.4884,-0.3721 h 0.37211 l -0.18606,1.1163 m 12.27928,-1.4884 0.18606,0.3721 m 14.13978,-0.3721 1.4884,0.18605 m 3.90704,-0.18605 0.18605,1e-5 m 10.23273,0 h 1.11631 m -76.46646,0.18604 0.37211,0.37211 m 31.4424,-0.37211 0.3721,1.30235 m 1.8605,-1.30235 0.18605,1.1163 m 0.3721,-0.18604 0.18605,-0.93026 0.55815,1.1163 m 0.74416,-1.11632 2.6047,2.04655 m 2.23261,-2.04655 0.37208,0.55815 m 1.67445,0.55815 -0.3721,-1.1163 c 0.63205,0.74597 1.22287,1.46609 2.23261,1.30236 l -0.37211,0.18604 m 9.11643,-1.4884 1.67445,0.7442 m 3.53496,-0.74419 -0.7442,0.55815 m 29.02375,-0.55816 -0.55815,0.37211 m -50.60553,-0.18606 c 0.1505,0.5526 0.25178,0.56606 0.7442,0.37211 m 2.60471,0 1.48838,0.7442 m 10.4188,-1.1163 0.37209,0.55815 0.55815,-0.37211 m 17.86078,1e-5 1.1163,-0.18605 m 5.76755,0 h 0.55815 m -79.443262,0.18605 v 1.30234 m 47.442692,-1.30235 0.18605,0.18605 m 9.67458,-0.18605 v 0.3721 m 20.27942,-0.3721 h 0.74422 m 5.76753,0 1.4884,0.18606 m -40.00069,-1e-5 v 0.3721 m 7.25594,-0.3721 1.11629,1.30235 m 0.3721,-1.30235 -0.37211,0.3721 0.37212,0.3721 -0.18606,-0.55815 m 18.60499,0 1.11629,-0.18605 m -50.60554,0.18605 0.55815,0.3721 m 17.48869,-0.3721 0.37209,0.18605 m 4.4652,-0.18605 0.37209,0.3721 m 1.1163,-0.3721 1.11629,0.3721 -0.18604,-0.55815 m 6.51173,0.18605 0.18607,0.18605 m 2.60469,-0.18605 -0.18606,0.18604 m 21.02363,-0.18604 h 0.74421 M 3.9126631,196.52267 c 1.794984,0.0401 3.513198,0.19036 5.209394,0 m 117.2113629,0 0.18605,0.55815 m 2.23259,-0.55814 0.55815,0.55814 m 1.67445,-0.55815 0.93025,1.4884 m 2.97679,-1.4884 c 0.2432,0.28409 0.22321,0.32895 0.74421,0.18605 m -125.025456,0 c 1.549734,0 3.196817,0 5.023343,0 h 8.558289 c 5.442233,0 10.935501,0 16.372374,0 2.36329,0 4.43808,-0.0153 6.883851,0.003 1.386077,0.0103 2.55899,0.13736 3.907044,0.17018 3.720526,0.0906 9.225053,0.0131 12.837443,0.0131 m 66.047662,-0.18606 1.1163,0.93025 m 0.7442,-0.93025 0.3721,0.93025 m 9.11643,-0.93025 0.37211,1.30235 1.86049,0.18605 m 0.37206,-0.74422 v -0.7442 l 0.55815,0.37201 m 9.67459,1.1163 0.93024,-0.18605 -1.48839,-1.1163 0.18605,-0.18605 h 0.3721 m 13.20954,0.55815 -0.74421,-0.3721 0.74421,-0.18604 m 3.16284,0 2.04655,-1e-5 m -39.81466,0.3721 0.37211,-0.18604 m 2.60468,-1e-5 0.7442,1.30235 m 3.3489,-1.30235 0.18605,0.18605 m 3.3489,-0.18605 0.37211,1e-5 m 9.30248,-1e-5 h 0.55814 m 5.39545,0.18605 2.41864,-0.18605 m 3.72101,0.18605 1.48839,-0.18604 m -37.02391,0.18604 0.37211,0.18605 m 1.1163,-0.18605 -0.74419,0.3721 m 9.67458,-0.3721 2.04655,2.04655 m -0.93025,-2.04655 1.67444,1.4884 m 6.51174,-1.4884 h 0.55816 m 21.95387,0 0.18604,2e-5 m 0.3721,0 0.18605,0.55815 m -60.65222,-0.3721 -0.55815,0.7442 m 17.67472,-0.7442 0.18606,0.18604 m 13.95373,-0.18605 0.37209,0.3721 m 4.27915,-0.37209 1.4884,0.18604 m 16.93053,-0.18604 h 0.37209 m 6.13964,0 0.37211,-1e-5 m -29.58192,0.18606 -2e-5,0.18603 m 17.30264,-0.18604 1.30234,-10e-6 m 4.46519,0.18606 2.04656,0.18605 m 2.79074,-0.18606 h 0.3721 m -58.2335,0.18608 c -0.53549,0.64767 -3.21881,2.47976 -2.88989,3.40542 0.28906,0.81346 2.74602,0.67119 3.44804,0.68129 2.04029,0.0293 4.10532,2e-4 6.13964,0.11515 1.73962,0.0983 3.2722,0.36093 4.83729,-0.48087 l -0.55815,-0.3721 m 13.02348,-3.34889 c 0.62394,1.84676 1.1948,3.7551 3.16284,3.90704 l -1.11629,-1.67445 m 8.37224,-2.23259 h 0.93025 m -61.210382,2.60469 c 0.0168,-0.93138 0.18911,-1.61426 0.930252,-2.41864 m 53.02419,0 -0.37211,0.37209 m 2.6047,-0.37209 0.18605,0.18605 m 10.97693,-0.18605 h 0.55816 m 4.27914,0.37209 2.2326,-0.37209 m 13.20953,0 1.4884,0.55815 m -37.95415,-0.3721 0.55814,0.93025 m 25.67487,-0.18606 2.6047,-0.55815 m 5.76755,0.55815 -0.93025,-0.18604 1.1163,-0.55814 m -106.978622,37.58204 -1.1163,0.55815 c -0.37142,-2.54701 -0.18606,-6.21336 -0.18606,-9.11644 l 1e-5,-20.09337 c -1e-5,-2.71837 -0.92846,-7.50507 1.48839,-8.74435 m 44.465912,0 1.48839,0.18606 m 0.3721,-0.18606 c 1.07117,0.18926 1.86876,0.24897 3.34889,0.55815 m 21.95388,-0.55815 0.18604,1.1163 m 10.0467,-1.1163 h 0.3721 m -1.67446,0.18606 1.8605,0.93024 m 4.4652,-0.93024 1.30234,0.55815 m 5.5815,-0.55815 0.18605,1e-5 m 5.76753,0 -0.37208,0.37209 M 3.9126641,198.75541 c 1.92316,0 3.759468,0 5.395442,0 m 108.2809739,0 1.4884,1.4884 0.55815,-0.55815 c 0.96774,0.64281 1.71564,1.01632 2.79074,1.1163 l -0.3721,-0.55815 m 39.6286,-1.4884 1.30235,0.3721 m 9.86064,-0.37209 -0.7442,0.18603 m -161.491206,0 c 0.143051,2.79664 1.306372,6.9279 2.081461,9.86064 1.141402,4.31878 1.502574,9.2504 -0.522159,13.39548 -1.555878,3.18526 -4.7896489,5.09559 -8.0710429,4.65135 M 64.564878,198.94145 h 1.11631 m 106.978622,0 0.93024,0.55815 m 2.6047,-0.55815 0.37211,1.11631 -0.55815,-1e-5 m 0.37208,-0.93024 h 0.74421 m -75.16411,0.18605 -0.74391,1.3025 -0.93026,-0.74419 m 36.27971,-0.55815 c 0.66453,0.85403 1.12365,1.25663 2.04654,1.4884 l -0.74419,-1.4884 m 10.04669,0 h 1.1163 m 4.46519,0 1.30234,0.55815 m 5.95361,-0.55815 1.48839,-0.18605 m 5.39545,0.18605 h 1.48839 m 6.69779,0 0.3721,-1e-5 m -34.97735,0.18605 0.7442,1.30236 -0.93027,0.55815 m 0.93027,-1.86051 0.74419,0.37211 m 23.44227,-0.18605 1.48841,0.37209 m 4.65124,-0.37209 h 0.74419 m -25.30276,0.18605 h 0.74419 m 4.27915,0 1.30235,-0.18605 m 8.00014,0.18605 h 1.30235 m 11.53509,0 1.48839,0.55814 m 0.37211,-0.55813 h 0.37211 m -57.11757,0.18587 -0.74421,0.18606 m 18.41893,-0.18606 0.18605,0.55815 m 10.97694,-0.55815 h 0.3721 m 11.72113,0 h 0.7442 m 9.86064,0 3.90705,0.74421 m -76.65251,-0.55815 0.55815,0.18604 m 41.30305,-0.18604 0.7442,0.7442 m 5.76754,-0.7442 1.8605,0.74419 m 27.72141,-0.74419 h 0.3721 m -29.02376,0.18604 h 0.3721 m 4.65124,0 h 1.30235 m -74.233862,6.51175 c -0.0214,0.79893 -0.015,1.33864 0.18605,2.41864 1.04021,-1.39403 0.26565,-2.35673 -0.93025,-3.16284 0.76982,-1.42936 1.46802,-2.41228 3.04562,-3.74314 1.29392,-1.09157 2.5419,-1.51202 4.02428,-1.83835 m 14.697932,-1e-5 v 0.55815 m 50.97763,-0.37209 c 1.98935,0.62637 3.94213,0.65684 6.3257,0.56491 4.1665,-0.16073 9.40272,-0.40869 13.39558,-0.75097 m -35.90761,0.18606 c 0.62901,0.39569 1.04154,0.67808 1.8605,0.55815 l -0.7442,0.18604 m 1.67445,-0.74419 0.3721,0.55815 m 2.97679,-0.55815 2.04655,0.93024 -0.55816,-0.7442 m 2.04656,0 2.04655,-0.18604 m -26.79117,0.18604 0.18606,0.18605 m 55.25677,-0.18605 0.7442,0.18605 m -54.51258,0 0.55815,0.3721 m 15.44213,-0.3721 v 0.55814 l 0.55816,1e-5 m 7.25593,-0.55815 c 2.22483,0.9133 4.73475,0.55438 6.88384,0.18606 m -12.27929,0.18604 1.48841,0.37211 m -32.93081,-0.18606 c 0.37562,0 0.18252,0 0.55815,0 m 15.25608,1e-5 c 2.79863,0.89264 9.07489,0.74898 11.72113,-1e-5 m 1.48839,0 -0.74419,0.3721 m 6.32569,-0.3721 c 0.92134,0.0706 1.47873,0.0364 2.41865,-0.18605 m -65.675572,2.79075 -0.55815,2.2326 m -0.18605,-1.30235 h 0.3721 m -2.04655,2.41866 0.93025,-1.30236 m -0.18605,0.18605 0.55814,0.55815 -0.37209,0.93025 m -6.3257,8.37224 -0.74416,1.11632 c -0.12953,-1.42211 0.22113,-2.20687 0,-3.3489 1.96606,-1.39614 3.4251,-5.38078 6.13965,-6.51173 m 2.79074,1.11628 1.86051,2.41865 -1.1163,-0.18605 -0.74421,0.7442 -0.93025,-2.2326 m 1.11631,-0.55815 -0.55815,0.18606 m -2.6047,0.37209 1.86049,-0.37209 m 2.97681,0 1.11629,0.74419 c -0.14824,2.51153 2.70327,2.26792 4.651252,2.47824 5.38554,0.58147 10.78539,0.95589 16.18632,1.32884 17.47851,1.20684 35.1935,0.87229 52.65209,-0.38523 4.41127,-0.31775 8.8076,-0.69637 13.20953,-1.14326 2.34696,-0.23825 4.39316,-0.67213 6.13965,-1.34833 m -100.466882,-0.93025 -1.1163,1.86049 m 3.3489,-1.8605 c 0.49199,2.46798 -1.44544,4.48541 -1.67445,6.32569 l 0.7442,-0.74419 c 0.35279,1.22086 0.28731,1.863 0,2.79074 l 1.4884,0.93026 -0.18605,-2.41866 0.3721,0.37211 -2e-5,0.18603 -3e-5,0.18605 -2e-5,0.18603 m -4.46519,-7.62804 -0.18605,0.7442 m -0.74419,0.18605 0.37209,-0.18605 m 1.67445,0.3721 c -0.37475,0.82068 -0.5067,1.81885 0,1.67445 m 6.3257,-1.30235 -1e-5,2.41865 m 0.7442,-2.41865 0.3721,1.8605 m 0.3721,-1.8605 -0.55815,0.55815 m -2.41864,-0.3721 -0.18605,2.41865 -1.1163,-1.1163 m -0.93026,-0.18605 -0.93024,2.6047 m -1.8605,-2.2326 c -0.82125,2.70662 -1.50778,5.04104 -3.90705,6.51174 l -0.74419,-0.7442 -0.18605,0.18605 m 0.7442,-5.02334 h 0.37209 m 8.5583,0 -0.18606,2.60469 m -5.76754,-1.67444 0.18605,1.11629 m 5.20939,-0.55815 v -0.55814 l 0.3721,1.11629 m -1.48839,0.55815 0.7442,-1.48839 m 0.37209,0.55815 -0.74416,1.11632 m -7.8141,0 0.18606,0.55815 m 5.39544,0.37209 c 0.27957,-0.57402 0.4871,-0.0929 0.74421,0.18606 h -0.93025 m -4.8373,-0.55815 -0.55813,1.11631 m 2.23259,-0.55815 c -0.1061,0.31837 0.20101,-0.015 -0.37212,0.55813 m 4.83729,-0.55815 -2e-5,0.18603 m -5.76754,0.18605 -0.55815,0.55815 m 1.8605,-0.18604 c -0.3708,1.67731 -0.43062,4.45654 -0.37209,6.13965 l 0.74419,-0.55815 c 0.30889,0.50636 0.54255,0.95387 1.1163,0.74419 m 4.0931,-5.76754 c 1.30922,2.15484 2.12398,3.46672 1.67444,5.9536 m -9.11644,-5.58151 -0.93025,0.74421 m 6.88385,-0.7442 -2e-5,0.18603 m 0.55815,-0.18604 c 0.74811,3.17183 0.34244,7.17462 0.3721,10.41879 m -4.65121,-10.04668 -0.7442,1.67445 m 2.2326,-1.67445 c -0.76614,2.94927 0.90447,5.69639 0.91421,8.55829 0.007,2.09978 -1.46612,4.58584 -1.28631,6.6978 m -0.55815,-14.51189 v 1.30236 m 3.34889,-1.30236 0.55816,1.67445 m 98.420322,-1.4884 c -0.001,1.7583 -0.16828,3.7329 -0.18329,5.76755 -0.026,3.53012 0.0119,7.07884 -0.0117,10.60483 -0.0114,1.70764 0.45669,3.90148 -0.4233,5.20924 -0.75823,1.12688 -1.9271,1.16753 -3.09627,1.24309 -0.93569,0.0605 -1.53814,-0.0534 -2.05304,-0.12663 1.15962,-1.63821 2.96723,-4.0221 5.39544,-5.39545 m -99.164492,-17.11657 -0.3721,5.76754 m 4.09309,-5.76755 c 2.06499,0.34226 5.09043,0.88129 7.442002,1.21093 3.22119,0.45148 6.44699,0.96348 9.67458,1.37997 1.92566,0.2485 4.09994,0.2298 5.92172,0.89114 1.29364,0.46956 2.38439,1.40649 3.56681,2.09946 1.02063,-2.23197 2.87006,-1.75891 5.02334,-1.6627 2.45169,0.10953 4.5197,0.42179 6.88386,0.52401 3.14747,0.13609 5.89604,0.2012 8.93039,0.20781 3.58396,0.008 7.03317,-0.005 10.60483,-0.19464 1.21347,-0.0644 2.12528,-0.26467 3.3489,-0.32815 3.728,-0.19341 7.6269,-0.3276 11.34902,-0.40682 m -80.931642,-3.16285 -0.55815,0.55815 m 1.67445,-0.55815 v 2.6047 m 4.83729,-2.6047 c 1.19401,0.79127 1.66323,1.51265 2.2326,2.41865 m 4.83729,-1.8605 c 0,2.01598 -0.004,4.62111 4.1e-4,6.88364 10e-4,0.8615 -0.19878,2.27999 0.52733,2.92076 1.1558,1.01999 4.351852,0.42834 5.797962,0.42834 2.91542,2e-5 5.19237,0.82732 8.00014,1.18561 2.03006,0.25904 4.16953,-0.001 6.13964,-0.0693 0.26836,1.05869 0.69804,1.65136 1.67445,2.23259 m 60.65221,-12.46552 c 0.52234,1.40646 0.80912,2.55621 -0.76138,3.26892 -1.21385,0.55083 -2.55421,0.81769 -3.89048,1.08135 -2.12784,0.41983 -4.18145,1.10756 -6.32507,1.23123 l 0.93025,-0.3721 m -53.39628,-4.0931 0.55814,0.18606 -0.55814,0.55816 m 0.55814,-0.55816 2.41866,0.37209 m -35.163422,0 -0.18607,0.37209 m 78.885102,-0.3721 0.18606,2.04655 c 0.30328,-0.88612 0.39829,-1.28279 0.55816,-2.04655 m -77.768832,0.55815 -0.18604,1.67445 0.93025,-0.3721 c 0.37133,1.72953 -0.96246,5.5974 -0.93025,7.06989 m 43.349602,-8.37222 c -2.26955,0.64236 -6.89368,0.3721 -9.86064,0.3721 m 32.00056,-0.3721 c 0.42671,0.17518 0.82171,0.38916 1.68906,0.49325 0.82296,0.0988 2.03442,0.0648 2.96218,0.0649 2.31926,1.5e-4 4.87295,-1e-5 6.88384,0 M 3.9126631,225.91854 h 0.18605 m 74.7920149,0.18604 -10e-6,0.37211 m -74.9780549,0.37209 h 0.18605 m 104.0018269,0 c -0.15169,1.40341 -1.64145,5.39098 -0.28086,6.3561 0.78534,0.55708 2.16415,0.34108 3.07165,0.34159 l 7.06985,1e-4 24.00042,-1e-5 c 2.52197,0 7.26209,0.90191 9.47908,-0.26761 1.30525,-0.68859 0.93661,-4.70115 0.93971,-6.05808 m 13.95372,0.18606 -0.18604,-0.55816 h 0.93024 m -12.65138,1.86051 c 2.78207,-0.46091 8.20542,-1.40685 11.53509,-1.67444 m -87.629442,0.18605 c -0.17447,1.0043 -0.45702,1.71957 -1.1163,2.79074 m -1.67446,-2.41864 10e-6,1.67444 m 2.79075,-0.55814 0.18604,0.18604 0.3721,0.3721 m 125.955702,-0.55815 c -0.0596,4.0135 0,10.1776 0,14.13978 -4.1362,-0.48749 -7.12676,-3.54364 -10.41879,-5.95359 2.03814,-2.01984 7.11872,-6.32512 10.23274,-7.25594 m -50.23344,-0.18605 c 1.22079,-0.20124 2.18231,-0.36461 3.53495,-0.3721 m -83.164252,2.2326 -0.3721,0.37211 m 11.72113,0.93024 -0.18604,1.1163 c 1.85639,0 4.301732,-3.5e-4 6.697792,2e-5 1.0401,1.6e-4 2.41759,-0.20613 3.38009,0.2676 1.46711,0.72213 0.95608,3.174 1.27115,4.38362 4.66136,-2.38417 12.89112,-0.54698 17.66561,1.19115 1.2691,0.462 2.10762,1.5574 3.38539,1.95553 1.88676,0.58788 4.04452,-0.2434 5.89439,0.46987 2.9387,1.13307 4.81455,4.57134 6.91567,6.43014 0.20244,-1.53228 0.88465,-4.88458 -0.24227,-6.15744 -0.98911,-1.11725 -3.3764,-0.53199 -4.59502,-0.35431 1.30989,1.87222 3.04109,3.55943 4.65124,5.2094 m -33.67501,-14.32583 -0.3721,1.1163 m 85.76895,-1.11629 -0.18606,50.04738 m -75.35015,-49.48924 -0.3721,0.37211 m 57.11728,-0.18607 c -1e-5,1.75521 0.0639,3.29712 -0.3721,4.8373 m -77.768802,-4.46519 c 4.3e-4,1.21032 -0.36343,3.2092 0.775,4.03688 0.83136,0.60442 2.16312,0.42709 3.132072,0.42811 2.36691,0.003 4.96957,2e-4 7.25591,2e-4 m 67.53607,-4.46519 c 3.07282,0.004 7.67496,0.18604 10.04669,0.18604 m -21.76783,0 c -0.33768,1.03611 -0.82264,1.55965 -1.86049,2.04655 m 37.0239,-0.93025 c -0.49292,0.18485 -0.97251,0.37079 -1.86905,0.54241 -0.95087,0.18204 -1.94828,0.2301 -2.43166,0.999 -0.62989,1.002 -0.38864,3.02015 -0.33295,4.22198 0.0531,1.14514 0.28025,2.07864 1.50162,2.29111 1.47864,0.2572 2.35684,-0.76163 3.16945,-1.56848 1.28331,-1.27429 2.7505,-2.65872 3.86964,-3.88132 -2.53416,-1.07106 -5.94715,-0.81058 -8.37225,-0.3721 m -0.18604,-1.8605 v 0.37211 M 3.9126651,236.15127 c 2.707821,0 5.486827,0 8.1861909,0 1.166815,0 2.199545,0 3.348896,1e-5 1.813043,-1e-5 3.75368,-0.002 5.581494,3.6e-4 1.787049,0.002 3.286145,0.15461 5.023341,0.17932 3.961847,0.0563 8.1187,0.006 12.093235,0.006 2.592074,0 4.9584,-0.008 7.62804,7.1e-4 1.589458,0.006 2.920013,0.14655 4.465197,0.17573 2.678572,0.0506 5.493245,0.009 8.186179,0.009 2.55095,1e-5 4.92375,0.3225 7.25595,-0.3721 m 127.816192,0.3721 0.93025,0.3721 M 64.750938,236.70881 c 2e-5,1.31608 -0.5202,2.87302 0.93025,3.53495 0,3.03278 -1e-5,8.73906 0,12.27928 v 30.32612 m 126.141752,-45.02406 1.11628,0.55815 c -2.237,2.17988 -4.05961,4.37107 -6.13963,5.2094 M 86.332708,238.38387 c 0,2.47752 0,5.2597 0,7.8141 v 13.58162 c 0,2.76662 -0.18114,6.04017 0.18606,8.5583 2.982772,-0.96877 8.131562,-2.168 11.535082,-3.05333 l 21.58178,-5.61454 c 2.57371,-0.67005 7.03524,-0.97071 9.09683,-2.70552 1.25557,-1.05652 0.73633,-3.53485 0.94985,-4.999 2.38961,1.14115 6.13927,0.87877 8.37224,0 -1.26157,-0.96338 -2.6533,-0.0579 -4.27914,-0.0655 -1.47676,-0.007 -2.7665,-0.87661 -4.0931,0.0655 m 63.25691,-13.58163 c 1.77056,0.63144 3.32547,1.66886 4.80596,2.85148 1.10481,0.88256 1.96282,1.60519 3.19419,0.86953 m -135.072132,-2.04655 1.30234,-0.55815 m -63.2569149,0.3721 h 9.6745869 5.023341 l 7.255942,0.18568 10.604834,3.7e-4 h 4.465193 l 6.88384,0.0181 4.093105,0.16691 8.372243,7e-4 h 4.27913 m 134.514002,-0.18606 c 0.7496,0.58435 1.20707,1.00477 2.04655,1.8605 m -1.86051,-1.30235 c 0.32151,-0.1905 0.30601,-0.30963 0.3721,0.18605 m -24.37252,2.41865 c 0.38049,-0.60562 0.63178,-1.04268 1.67445,-2.04655 m -51.90788,0.7442 1.30235,1e-5 m 5.20939,-0.18605 c 1.69756,0 3.12833,0.0158 4.83729,0.0126 2.85542,-0.005 5.74031,-0.0126 8.55829,-0.0126 m -8.74433,0.18605 c 0.13086,2.28042 0.20448,6.43964 0,8.93039 m 64.74531,-8.37224 0.55815,-0.18605 m -29.95401,1.48839 -0.93025,-0.18604 1.67445,-0.93025 m 26.79117,-1e-5 -1.30235,0.93026 c 1.74858,0.71781 4.49434,0.54275 8.00014,0.74419 m -0.93025,-1.4884 0.93025,0.55816 m -33.11686,-0.3721 h 0.55815 m 1.1163,0.55815 0.93024,-0.3721 m 22.88413,0 c 1.91909,0.54318 5.18945,0.5028 7.06989,0.18605 m -34.79131,0.3721 c -0.82709,0.40366 -1.51061,0.92225 -3.53495,0.74419 1.83812,-1.1394 2.60294,-0.94624 3.53495,-0.74419 m 6.32569,-0.3721 c 0.6368,2.28321 0.36904,7.24674 0.37184,10.60484 0.008,9.61194 2.6e-4,19.22561 2.6e-4,28.83771 m 6.32569,-39.2565 c -0.28509,2.16507 -0.19995,7.15234 -0.18218,10.41878 0.0127,2.32769 -0.0492,4.75444 0.006,7.06989 0.0392,1.62096 0.24501,2.97637 0.19705,4.65124 -0.057,1.99001 0.006,3.65349 -0.0308,5.58151 -0.0718,3.80488 -0.17678,7.71423 -0.17678,11.53507 m 4.83729,-39.07045 c 2.47722,1e-5 7.1529,0.10291 9.67459,-0.18604 m -30.69787,1.11665 h -1.4884 l 1.11629,-0.37209 m -0.55814,0.74419 -1.1163,0.18605 0.55815,-0.55815 m -1.1163,1.30235 -0.55815,-0.18604 1.1163,-0.37211 m -8.74434,18.23289 -0.55815,1.4884 c 0.15312,-1.56649 0.74908,-3.47928 1.10158,-5.20939 0.25275,-1.24054 0.89052,-2.26107 0.88832,-3.49256 -0.002,-0.99917 -0.63576,-1.80829 -0.41205,-2.84879 0.75396,-3.50697 3.35813,-6.46691 6.60834,-7.79844 m -3.53495,37.0239 c 0.001,-1.47885 0.0558,-2.59613 0.14642,-4.27915 0.15698,-2.91725 0.29108,-5.82335 0.49837,-8.74434 0.35522,-5.00568 0.48222,-10.11107 1.28703,-15.07002 0.38212,-2.3546 1.00059,-5.02644 2.81848,-6.70697 2.85947,-2.64341 8.30041,-2.2154 11.80813,-2.22343 m 6.51174,0 c 4.75832,1e-5 10.88203,-1.7e-4 15.81423,1e-5 2.16109,8e-5 4.50463,0.0535 6.51175,0.3721 m -41.4891,-1e-5 c -2.20521,2.03211 -3.57008,4.61256 -4.24821,7.62805 -1.44065,6.4062 -1.68643,13.18813 -2.13678,19.72127 -0.19347,2.80652 -0.48435,6.79328 -0.49885,9.3025 m -26.04694,-34.2332 c 0,0.87072 0,1.36188 0,2.2326 m 55.62887,-1.4884 c 1.9877,-0.61341 4.08659,-0.67137 6.13965,-0.37209 -1.98901,0.73352 -4.72325,0.83141 -6.51174,0.18604 l 0.3721,0.55814 m -3.3489,13.39559 c 0.37474,-1.32385 0.33545,-2.73782 0.47566,-4.46272 0.0573,-0.70487 0.0276,-1.80699 0.72162,-2.22417 0.98012,-0.58915 2.751,-0.0615 3.82607,-0.0535 0.90426,0.007 1.71045,-0.0841 2.6047,-0.12021 2.24159,-0.0904 4.33623,-0.23999 6.51173,-0.39534 -0.53745,-1.83378 -1.31474,-4.59801 -3.27826,-5.38115 -2.64813,-1.05623 -7.17813,0.57532 -9.37312,-0.7585 l 1.30235,-0.37208 m -2.9768,0.18605 h 1.48841 m -13.76769,33.3029 c 0.37764,-2.42521 0.56188,-5.15035 0.82399,-7.62804 0.5614,-5.30679 1.06242,-10.66406 1.21048,-16.00029 0.11202,-4.03739 -0.36182,-7.58721 3.73307,-9.48855 m 17.86078,0.18606 c 1.68129,0.0583 4.18676,-0.1101 5.56194,1.15082 2.12849,1.95167 3.34922,7.05128 3.82613,9.82611 0.44198,2.57159 -1.15057,4.98111 -2.13213,6.69779 -0.7672,-2.25068 -1.43509,-4.72264 -2.38989,-7.25594 -0.59287,-1.573 -1.13447,-2.97854 -1.88925,-4.46519 m -28.46562,25.48882 c 0.15543,-2.07639 0.45119,-4.46408 0.65544,-6.69779 0.50748,-5.54977 0.96863,-11.60426 1.30089,-17.11658 0.0729,-1.20865 0.0384,-2.32215 0.0969,-3.53486 0.13044,-2.70349 1.28247,-3.51261 3.71428,-3.90713 m 10.23274,0.18604 c -0.84474,1.76893 -0.93024,3.73768 -1.1163,5.5815 m -9.11644,-4.65125 1.8605,-0.18603 m -38.8844,1.30233 c 1e-5,1.33311 -0.54785,3.73641 0.7638,4.68663 1.0787,0.78149 2.80192,0.89857 4.07349,1.18539 3.24004,0.73086 7.33201,1.12534 10.32609,2.54822 2.10567,1.00065 -0.46531,4.46503 2.6974,4.41721 m 15.25608,-9.48855 -2.79075,0.18605 2.79075,-0.93025 m 26.23302,0 c -2.84235,0.77013 -5.73709,0.55839 -8.74435,0.55815 -1.72601,-1.6e-4 -2.62594,0.0279 -4.09309,-0.18605 m -27.90747,-0.18605 c -1.03009,1.23267 -0.9871,2.35649 -0.74419,3.90706 0.48779,-0.92308 0.69254,-1.46643 1.11629,-2.23261 l -0.3721,-0.18604 m 0,-1.1163 0.18606,0.93025 m 26.79116,-0.7442 0.55815,-0.18605 m -26.41907,0.18605 0.18606,0.93025 m 10.23272,-0.93026 1e-5,0.93026 0.3721,-0.3721 m -0.7442,0 -0.55813,1.11631 -1e-5,-0.55816 m -10.04668,-0.37209 -0.18605,0.18605 m 10.97693,-0.18605 -0.55815,0.55814 m -38.1402,10e-6 c 2.64832,1.41484 6.09951,1.42088 8.74434,0 m 18.79104,0.18605 -0.18606,0.18605 m -1.1163,0 c -0.50285,1.14816 -0.74729,2.11252 -0.93024,3.34889 m 12.27928,-3.34889 c 0.24146,1.59636 0.065,3.80654 -0.0284,5.39544 -0.0767,1.30421 -0.42586,2.13401 -0.49924,3.53495 -0.0929,1.77374 0.14503,3.29046 0.15381,5.02334 0.0183,3.59554 10e-4,8.17449 10e-4,11.53509 m 0.93058,-25.48882 -0.37209,0.3721 m -0.18607,-0.18605 0.18606,0.93026 m -10.41879,-0.18605 0.3721,0.37209 m 9.48854,-0.3721 c -0.29246,2.08369 -0.44357,4.55823 -0.18605,6.32569 m -13.20953,5.39545 -0.18605,0.74419 -2.9768,-0.55815 c 0.86683,-0.27227 1.64682,-0.54669 2.59207,-0.53318 2.63878,0.0378 1.69494,4.13748 1.12893,6.11468 -2.187,-2.00108 -3.93975,-4.45193 -5.85465,-6.74781 -2.63846,-3.16339 -6.14675,-6.92089 -8.47118,-10.18272 1.3503,-0.22347 2.54023,0.0392 4.0931,0.40376 3.16485,0.74286 8.35168,2.01001 10.79088,2.57303 m -0.37209,14.13979 c -0.11001,1.23617 -0.18489,2.21233 -0.55816,3.53495 -1.70161,-1.59623 -3.43873,-3.61711 -5.14653,-5.58149 -2.91331,-3.35102 -5.82151,-6.70715 -8.74863,-10.04663 -1.94302,-2.21675 -3.71603,-4.53791 -6.94241,-4.35531 -3.58434,0.20284 -7.33735,3.1014 -10.41879,4.77793 -7.05523,3.83852 -14.1697,7.58216 -21.20968,11.45283 -2.55525,1.4049 -5.04558,2.86326 -7.62802,4.20442 -0.80378,0.41742 -2.26922,1.15394 -3.07987,0.68365 -0.94497,-0.54824 0.87938,-1.58294 1.412,-1.88558 2.31293,-1.31435 4.72963,-2.54264 7.06331,-3.83906 1.96332,-1.09068 4.00267,-2.21204 5.94721,-3.31536 0.90764,-0.51498 1.73942,-1.08893 2.65177,-1.59143 0.85456,-0.47071 1.69016,-0.82928 2.5641,-1.288 3.41673,-1.7934 6.84589,-3.77257 10.23264,-5.63956 2.65839,-1.46552 5.35015,-2.95929 8.00015,-4.41399 m 28.27955,0.18605 0.55815,0.55816 m 48.93109,-0.3721 -1.1163,2.41863 m -49.67531,4.09308 c -0.0833,1.39342 -0.23377,2.58146 -0.3721,4.09309 m 47.44269,-2.04655 c -0.19513,2.01496 -0.85941,3.97319 -1.55532,6.51175 -0.79215,2.8896 -1.59303,5.80226 -2.16567,8.74434 m -116.653212,0 c -0.39037,-1.50094 -0.62017,-2.96563 -0.0601,-4.45884 0.37103,-0.98909 1.09635,-1.79914 1.38594,-2.82894 0.527,-1.87381 -0.34077,-3.9765 0.59158,-5.77483 0.52147,-1.00581 1.64057,-1.17851 2.5477,-1.44926 m 61.954572,0.18603 3.53494,0.74421 m -22.13986,13.58163 c 2e-5,-3.16691 0.21301,-6.32115 0.1819,-9.48854 -0.0105,-1.07333 -0.3829,-2.75191 0.46711,-3.58966 1.58536,-1.56251 4.8593,-0.47591 6.30886,0.6559 2.41339,1.88439 4.70712,4.17095 6.99586,6.22399 2.22525,1.99611 4.66415,4.09911 6.69779,6.19831 m 0,-13.76769 -1.4884,0.74421 m 1.30235,-0.55816 0.3721,0.3721 m -51.72183,13.20954 c 2.39326,-0.53585 5.31092,-2.05191 7.81409,-3.16301 5.13468,-2.27918 10.31563,-4.47776 15.44214,-6.76808 2.39236,-1.06881 5.30991,-2.54039 7.62804,-3.09239 m -45.954302,13.02348 c -0.23778,-2.61887 0.37427,-4.44181 2.21361,-6.32395 0.74453,-0.76184 1.25049,-1.72038 2.18972,-2.3203 2.458532,-1.57027 6.709322,-1.78301 9.550402,-2.41545 2.94713,-0.65606 6.88974,-1.58975 8.93039,-1.77773 m 42.79145,0.55814 0.7442,-0.3721 m 3.34889,10e-6 -0.18605,0.55814 m -16.74448,0 c 0,2.98061 0,8.60279 0,12.09324 m 13.20954,-11.90719 0.55815,-0.3721 m 3.72099,0.3721 h 0.3721 m -70.884962,3.90704 c 1.25617,-0.003 2.29262,-0.0276 3.53494,-0.18604 m 0.37211,0.55815 2.790742,0.55815 c -1.533322,0.52667 -3.053872,0.46017 -4.516762,1.96812 -1.3812,1.42374 -1.51849,3.22867 -1.25078,5.10177 m -0.93025,-7.25594 c 1.02432,0.0377 1.83579,0.0424 3.16286,1e-5 m 3.534932,0.37208 1.67446,2.23261 m -1.48841,-2.04655 -0.55814,0.18606 m -6.511742,0.18603 c 0.0724,0.69619 0.13004,1.17701 0.93024,1.67445 m 69.396572,1.4884 -0.18606,3.16285 m -64.37322,-2.2326 v 2.2326 m 80.18745,-0.18605 -2e-5,0.18604"
       id="path1" /></g></svg>
