<?xml version="1.0" encoding="UTF-8" standalone="no"?>
<!-- Created with Inkscape (http://www.inkscape.org/) -->

<svg
   width="210mm"
   height="297mm"
   viewBox="0 0 210 297"
   version="1.1"
   id="svg1"
   xmlns="http://www.w3.org/2000/svg"
   xmlns:svg="http://www.w3.org/2000/svg">
  <defs
     id="defs1" />
  <g
     id="layer1">
    <path
       d="m 62.888158,129.6885 q 0,1.89813 -0.544316,3.47526 -0.544317,1.56316 -1.535252,2.65179 -0.921151,1.03281 -2.177266,1.60504 -1.242159,0.55827 -2.637842,0.55827 -1.214245,0 -2.20518,-0.26518 -0.976979,-0.26518 -1.995828,-0.82345 v 6.5318 h -2.623885 v -21.34 h 2.623885 v 1.63295 q 1.046763,-0.87928 2.344749,-1.46547 1.311942,-0.60014 2.791367,-0.60014 2.81928,0 4.382446,2.13539 1.577122,2.12144 1.577122,5.90374 z m -2.707626,0.0698 q 0,-2.81928 -0.963021,-4.21497 -0.963022,-1.39568 -2.958849,-1.39568 -1.130504,0 -2.274965,0.48849 -1.14446,0.48849 -2.191223,1.28403 v 8.83468 q 1.116547,0.50244 1.912087,0.68388 0.809496,0.18144 1.828345,0.18144 2.191223,0 3.419425,-1.47943 1.228201,-1.47942 1.228201,-4.38244 z m 19.84662,0.39079 H 68.540677 q 0,1.43755 0.432661,2.51223 0.432662,1.06072 1.186331,1.7446 0.725756,0.66993 1.716691,1.0049 1.004892,0.33496 2.20518,0.33496 1.591079,0 3.196116,-0.62806 1.618992,-0.64201 2.302877,-1.25611 h 0.139569 v 2.86115 q -1.3259,0.55827 -2.707626,0.93511 -1.381727,0.37683 -2.903022,0.37683 -3.88,0 -6.057267,-2.09352 -2.177266,-2.10749 -2.177266,-5.97353 0,-3.82417 2.079568,-6.07122 2.093526,-2.24705 5.498994,-2.24705 3.154244,0 4.856978,1.8423 1.716691,1.8423 1.716691,5.23381 z m -2.554101,-2.00978 q -0.01396,-2.06562 -1.046762,-3.19612 -1.018849,-1.1305 -3.112375,-1.1305 -2.107482,0 -3.363597,1.24215 -1.242158,1.24216 -1.40964,3.08447 z m 19.567484,9.53251 H 94.41665 v -8.87654 q 0,-1.07468 -0.125611,-2.00979 -0.125612,-0.94906 -0.460576,-1.47942 -0.348921,-0.58619 -1.004892,-0.86533 -0.655971,-0.29309 -1.702734,-0.29309 -1.074676,0 -2.247051,0.53036 -1.172374,0.53036 -2.24705,1.35381 v 11.64 h -2.623885 v -15.58978 h 2.623885 v 1.73065 q 1.228201,-1.01885 2.540144,-1.59108 1.311943,-0.57223 2.693669,-0.57223 2.526187,0 3.852087,1.52129 1.325899,1.5213 1.325899,4.38245 z m 17.166905,0 h -2.60993 v -1.66086 q -0.34892,0.23727 -0.94906,0.66993 -0.58619,0.4187 -1.14446,0.66993 -0.65597,0.321 -1.50734,0.53036 -0.85137,0.22331 -1.99583,0.22331 -2.10748,0 -3.57295,-1.39569 -1.46546,-1.39568 -1.46546,-3.55899 0,-1.77252 0.75366,-2.86115 0.76763,-1.10259 2.17727,-1.73065 1.4236,-0.62806 3.41943,-0.85137 1.99582,-0.22331 4.28474,-0.33496 v -0.40475 q 0,-0.89324 -0.321,-1.47942 -0.30705,-0.58619 -0.89324,-0.92115 -0.55827,-0.32101 -1.33986,-0.43267 -0.78158,-0.11165 -1.63295,-0.11165 -1.0328,0 -2.30287,0.27914 -1.27008,0.26518 -2.62389,0.78158 h -0.13957 v -2.66576 q 0.76763,-0.20935 2.21914,-0.46057 1.45151,-0.25123 2.86115,-0.25123 1.64691,0 2.86115,0.27914 1.2282,0.26518 2.12144,0.92115 0.87928,0.64202 1.33986,1.66087 0.46057,1.01884 0.46057,2.52618 z m -2.60993,-3.83813 v -4.34057 q -1.20028,0.0698 -2.83323,0.20935 -1.619,0.13957 -2.56806,0.40475 -1.1305,0.32101 -1.82835,1.00489 -0.69784,0.66993 -0.69784,1.85626 0,1.33986 0.8095,2.02374 0.80949,0.66993 2.47036,0.66993 1.38172,0 2.52619,-0.53036 1.14446,-0.54432 2.12143,-1.29799 z m 17.39023,-8.8905 h -0.13957 q -0.58619,-0.13957 -1.14446,-0.1954 -0.54432,-0.0698 -1.29799,-0.0698 -1.21424,0 -2.34475,0.54432 -1.1305,0.53036 -2.17726,1.38172 v 11.06777 h -2.62389 v -15.58978 h 2.62389 v 2.30288 q 1.56316,-1.25612 2.74949,-1.77252 1.20029,-0.53036 2.44245,-0.53036 0.68388,0 0.99093,0.0419 0.30705,0.0279 0.92116,0.12561 z m 10.56532,12.58907 q -0.73971,0.19539 -1.61899,0.321 -0.86533,0.12561 -1.54921,0.12561 -2.38662,0 -3.62878,-1.28402 -1.24216,-1.28403 -1.24216,-4.11727 v -8.29036 h -1.77252 v -2.20518 h 1.77252 v -4.48015 h 2.62389 v 4.48015 h 5.41525 v 2.20518 h -5.41525 v 7.10403 q 0,1.2282 0.0558,1.92604 0.0558,0.68389 0.3908,1.28403 0.30705,0.55827 0.83741,0.82345 0.54431,0.25123 1.6469,0.25123 0.64202,0 1.33986,-0.18144 0.69784,-0.1954 1.00489,-0.32101 h 0.13957 z m 5.98748,-18.06015 h -2.95885 v -2.72158 h 2.95885 z m -0.16748,18.19971 h -2.62388 v -15.58978 h 2.62388 z m 16.72028,-0.97697 q -1.31194,0.62805 -2.49827,0.97697 -1.17237,0.34892 -2.49827,0.34892 -1.68878,0 -3.09842,-0.48848 -1.40964,-0.50245 -2.41453,-1.50734 -1.01885,-1.00489 -1.57713,-2.54015 -0.55827,-1.53525 -0.55827,-3.5869 0,-3.82418 2.09353,-6.00144 2.10748,-2.17727 5.55482,-2.17727 1.33985,0 2.62388,0.37684 1.29799,0.37683 2.37266,0.92115 v 2.91698 h -0.13957 q -1.20028,-0.93511 -2.48431,-1.43756 -1.27007,-0.50244 -2.48432,-0.50244 -2.23309,0 -3.53108,1.50733 -1.28403,1.49338 -1.28403,4.39641 0,2.81928 1.25612,4.34057 1.27007,1.50734 3.55899,1.50734 0.79554,0 1.61899,-0.20935 0.82346,-0.20935 1.47943,-0.54432 0.57223,-0.29309 1.07468,-0.6141 0.50244,-0.33496 0.79553,-0.57223 h 0.13957 z"
       id="text1"
       style="font-size:28.5836px;stroke-width:0.253201;stroke-miterlimit:20;fill:none;stroke:#000000;stroke-opacity:1;fill-opacity:1;stroke-dasharray:2.02560806,0.50640201;stroke-dashoffset:0"
       aria-label="penartic" />
    <path
       d="m 60.064885,153.75859 q 0,1.09141 -0.385851,2.02848 -0.374827,0.92604 -1.058334,1.60955 -0.848873,0.84887 -2.006426,1.27882 -1.157553,0.41892 -2.921444,0.41892 h -2.182815 v 6.1185 h -2.182814 v -16.41521 h 4.453824 q 1.477258,0 2.50252,0.25356 1.025261,0.24254 1.819012,0.7717 0.937067,0.62839 1.444185,1.56546 0.518143,0.93706 0.518143,2.37022 z m -2.271009,0.0551 q 0,-0.84888 -0.297657,-1.47726 -0.297656,-0.62839 -0.903994,-1.02526 -0.529167,-0.34176 -1.212674,-0.48507 -0.672484,-0.15434 -1.708769,-0.15434 h -2.160767 v 6.55946 h 1.841061 q 1.322918,0 2.149742,-0.23151 0.826824,-0.24253 1.344967,-0.76067 0.518143,-0.52917 0.727605,-1.11346 0.220486,-0.58429 0.220486,-1.31189 z m 15.963211,11.39914 H 62.942232 v -16.41521 h 10.814855 v 1.94028 h -8.63204 v 4.49792 h 8.63204 v 1.94028 h -8.63204 v 6.09645 h 8.63204 z m 15.985259,0 h -2.700958 l -7.783167,-14.68439 v 14.68439 h -2.039499 v -16.41521 h 3.384465 l 7.09966,13.40557 v -13.40557 h 2.039499 z m 17.308184,0 h -2.32614 l -1.60955,-4.57509 h -7.099656 l -1.60955,4.57509 h -2.215887 l 5.975179,-16.41521 h 2.910424 z m -4.60817,-6.44923 -2.877346,-8.05877 -2.888371,8.05877 z m 20.68162,6.44923 h -2.83325 l -5.49011,-6.5264 h -3.07578 v 6.5264 h -2.18282 v -16.41521 h 4.59714 q 1.48828,0 2.48047,0.19844 0.99219,0.18741 1.78594,0.68351 0.89297,0.56224 1.38907,1.42213 0.50711,0.84888 0.50711,2.16077 0,1.77492 -0.89296,2.97657 -0.89297,1.19062 -2.45843,1.79696 z m -5.10426,-11.79602 q 0,-0.70556 -0.25356,-1.24575 -0.24253,-0.55121 -0.8158,-0.92604 -0.47404,-0.3197 -1.12448,-0.44097 -0.65043,-0.13229 -1.53238,-0.13229 h -2.56866 v 6.19566 h 2.20486 q 1.03629,0 1.80799,-0.17639 0.7717,-0.18741 1.31189,-0.6835 0.4961,-0.46303 0.72761,-1.05834 0.24253,-0.60634 0.24253,-1.53238 z m 18.26729,-2.67891 h -5.86494 v 14.47493 h -2.18281 v -14.47493 h -5.86494 v -1.94028 h 13.91269 z m 7.99263,14.47493 h -6.4823 v -1.6757 h 2.14974 v -13.06381 h -2.14974 v -1.6757 h 6.4823 v 1.6757 h -2.14974 v 13.06381 h 2.14974 z m 16.39316,-1.19063 q -0.60634,0.26459 -1.10243,0.4961 -0.48507,0.23151 -1.27882,0.48507 -0.67249,0.20946 -1.46624,0.35278 -0.78273,0.15434 -1.73082,0.15434 -1.78594,0 -3.25217,-0.4961 -1.45521,-0.50712 -2.53559,-1.57647 -1.05834,-1.04731 -1.65365,-2.65687 -0.59531,-1.62057 -0.59531,-3.75929 0,-2.02847 0.57326,-3.627 0.57327,-1.59852 1.65365,-2.70096 1.04731,-1.06935 2.52457,-1.63159 1.48828,-0.56224 3.29627,-0.56224 1.32292,0 2.63481,0.3197 1.32292,0.31971 2.93247,1.12448 v 2.59072 h -0.16537 q -1.35599,-1.13551 -2.68993,-1.65365 -1.33394,-0.51814 -2.8553,-0.51814 -1.24575,0 -2.24896,0.4079 -0.99219,0.39687 -1.77491,1.24574 -0.76068,0.82683 -1.19063,2.09462 -0.41892,1.25678 -0.41892,2.91042 0,1.73082 0.46302,2.97657 0.47404,1.24575 1.21267,2.02847 0.7717,0.8158 1.79697,1.21268 1.03628,0.38585 2.18281,0.38585 1.57648,0 2.95452,-0.54019 1.37804,-0.54019 2.57969,-1.62058 h 0.15434 z"
       id="text1-8"
       style="font-size:22.5778px;stroke-width:0.2;stroke-miterlimit:20;fill:none;stroke:#000000;stroke-opacity:1;fill-opacity:1;stroke-dasharray:1.60000002,0.40000001;stroke-dashoffset:0"
       aria-label="PENARTIC" />
  </g>
</svg>
