<?xml version="1.0" encoding="UTF-8" standalone="no"?>
<!-- Created with Inkscape (http://www.inkscape.org/) -->

<svg
   width="210mm"
   height="297mm"
   viewBox="0 0 210 297"
   version="1.1"
   id="svg1"
   xmlns="http://www.w3.org/2000/svg"
   xmlns:svg="http://www.w3.org/2000/svg">
  <defs
     id="defs1" />
  <g
     id="layer1">
    <rect
       style="fill:none;stroke:#000000;stroke-width:0.2;stroke-miterlimit:20;stroke-dasharray:none"
       id="rect1"
       width="30"
       height="25"
       x="54.245453"
       y="84.599998"
       ry="4" />
    <rect
       style="fill:#000000;stroke:none;stroke-width:0.2;stroke-miterlimit:20;stroke-dasharray:none;fill-opacity:1"
       id="rect1-8"
       width="30"
       height="25"
       x="90.072723"
       y="84.599998"
       ry="4" />
    <rect
       style="fill:#000000;stroke:#000000;stroke-width:0.2;stroke-miterlimit:20;stroke-dasharray:none;fill-opacity:1"
       id="rect1-8-1"
       width="30"
       height="25"
       x="125.32727"
       y="84.599998"
       ry="4" />
    <path
       style="fill:none;fill-opacity:1;stroke:#000000;stroke-width:0.2;stroke-miterlimit:20;stroke-dasharray:none;stroke-opacity:1"
       id="path2"
       d="M 80.67273,68.945374 A 11.331819,9.1644802 0 0 1 71.308662,77.970625 11.331819,9.1644802 0 0 1 58.692486,72.07981 11.331819,9.1644802 0 0 1 63.675003,61.008701 l 5.665909,7.936673 z" />
    <path
       style="fill:#000000;fill-opacity:1;stroke:none;stroke-width:0.2;stroke-miterlimit:20;stroke-dasharray:none;stroke-opacity:1"
       id="path2-2"
       d="m 115.5528,68.945374 a 11.331819,9.1644802 0 0 1 -9.36407,9.025251 11.331819,9.1644802 0 0 1 -12.616179,-5.890815 11.331819,9.1644802 0 0 1 4.982517,-11.071109 l 5.665912,7.936673 z" />
    <path
       style="fill:#000000;fill-opacity:1;stroke:#000000;stroke-width:0.2;stroke-miterlimit:20;stroke-dasharray:none;stroke-opacity:1"
       id="path2-2-2"
       d="m 152.15772,68.945374 a 11.331819,9.1644802 0 0 1 -9.36407,9.025251 11.331819,9.1644802 0 0 1 -12.61618,-5.890815 11.331819,9.1644802 0 0 1 4.98252,-11.071109 l 5.66591,7.936673 z" />
  </g>
</svg>
