<?xml version="1.0"?>
<svg width="640" height="480" xmlns="http://www.w3.org/2000/svg" xmlns:svg="http://www.w3.org/2000/svg">
 <!-- Created with SVG-edit - https://github.com/SVG-Edit/svgedit-->
 <g class="layer">
  <title>Layer 1</title>
  <path d="m229.67,88.67c115,-42 396,-2 371,40c-25,42 -89,173 -89.67,172.33c-0.67,-0.67 -140.33,21.67 -141,21c-0.67,-0.67 -219.33,2.67 -174.33,-39.33c45,-42 48,-148 148,-88c100,60 154,16 156,-1c2,-17 -100,-59 -100.67,-59.67c-0.67,-0.67 -155.33,10.67 -156,10c-0.67,-0.67 -83.33,93.67 -84,93" fill="none" id="svg_4" stroke="#000000" stroke-width="5"/>
  <path d="m111.67,110.67c0,-0.76 -0.02,-1.65 0,-2.52c0.02,-0.96 0.58,-1.68 1.26,-2.16c0.92,-0.65 1.43,-1.09 1.98,-1.6c0.58,-0.54 1.16,-1.13 2.06,-2.03c0.59,-0.59 1.17,-1.17 1.74,-1.69c0.78,-0.7 1.5,-1.2 2.15,-1.63c0.82,-0.55 1.38,-1.09 2.08,-1.52c1.01,-0.62 1.7,-0.72 2.4,-0.79c1.13,-0.11 2.33,-0.07 3.13,-0.07c0.81,0 1.63,0 2.06,0c1.31,0 2.23,-0.01 3.2,0.02c0.51,0.02 1.56,0.08 2.11,0.15c1.16,0.14 2.4,0.39 3.03,0.53c0.64,0.14 1.28,0.3 2.54,0.59c0.61,0.14 1.76,0.39 2.8,0.54c0.93,0.13 1.37,0.09 2.48,0.34c0.95,0.21 1.71,0.69 2.37,1.18c0.82,0.62 1.48,0.95 2.12,1.62c0.7,0.72 0.98,1.59 1.18,2.2c0.33,0.99 0.53,1.72 0.67,2.51c0.16,0.87 0.21,1.87 0.13,2.99c-0.04,0.62 -0.14,1.28 -0.4,2.66c-0.14,0.72 -0.3,1.45 -0.46,2.18c-0.16,0.73 -0.48,2.16 -0.62,2.85c-0.14,0.67 -0.4,1.97 -0.54,2.6c-0.14,0.62 -0.24,1.25 -0.81,3.04c-0.19,0.61 -0.43,1.2 -0.68,1.8c-0.51,1.19 -0.8,1.77 -1.09,2.35c-0.29,0.57 -1.19,2.24 -1.49,2.77c-0.3,0.53 -0.6,1.06 -1.27,2.07c-0.33,0.51 -0.66,1.04 -1.87,2.51c-0.42,0.51 -0.88,1.02 -1.37,1.53c-0.51,0.53 -1.05,1.08 -1.62,1.64c-0.6,0.59 -1.93,1.83 -2.65,2.49c-0.75,0.69 -1.53,1.39 -2.33,2.1c-0.81,0.72 -1.62,1.43 -2.43,2.12c-0.8,0.68 -2.35,1.95 -3.09,2.53c-0.71,0.55 -1.4,1.06 -2.08,1.54c-0.66,0.47 -1.32,0.91 -1.99,1.33c-0.66,0.42 -2.03,1.22 -2.74,1.62c-0.72,0.4 -1.46,0.8 -2.2,1.21c-0.74,0.41 -1.48,0.82 -2.2,1.25c-0.71,0.42 -2.07,1.3 -2.7,1.76c-0.62,0.46 -1.2,0.93 -1.77,1.43c-0.56,0.49 -1.1,1 -1.64,1.51c-0.54,0.52 -1.62,1.6 -2.18,2.16c-0.56,0.56 -1.13,1.13 -1.69,1.7c-0.57,0.57 -1.13,1.15 -1.68,1.72c-0.54,0.57 -1.58,1.68 -2.07,2.23c-0.47,0.53 -0.93,1.06 -1.35,1.6c-0.42,0.52 -0.81,1.05 -1.17,1.58c-0.36,0.53 -1,1.61 -1.28,2.17c-0.28,0.56 -0.54,1.14 -0.79,1.74c-0.25,0.6 -0.5,1.23 -0.76,1.86c-0.26,0.65 -0.83,2.02 -1.14,2.72c-0.32,0.73 -0.66,1.46 -0.99,2.21c-0.33,0.75 -0.66,1.5 -0.95,2.24c-0.29,0.73 -0.77,2.17 -0.93,2.86c-0.16,0.68 -0.34,2.03 -0.36,2.73c-0.03,0.71 -0.01,1.45 0.05,2.23c0.13,1.69 0.26,2.62 0.4,3.6c0.14,1.02 0.3,2.07 0.49,3.13c0.19,1.08 0.39,2.16 0.63,3.23c0.46,2.07 0.72,3.05 1,3.99c0.27,0.92 0.56,1.8 0.87,2.66c0.31,0.84 0.64,1.67 1.01,2.48c0.73,1.62 1.17,2.41 1.6,3.21c0.44,0.81 0.9,1.61 1.37,2.42c0.48,0.82 0.97,1.64 1.46,2.46c1,1.68 1.5,2.54 2,3.4c0.5,0.87 1,1.75 1.5,2.64c0.5,0.89 1,1.78 1.5,2.68c1,1.8 1.5,2.7 2,3.6c0.5,0.9 0.99,1.79 1.48,2.68c0.49,0.88 0.97,1.76 1.44,2.64c0.92,1.72 1.37,2.56 1.8,3.4c0.43,0.82 0.84,1.63 1.25,2.43c0.4,0.78 0.78,1.54 1.15,2.29c0.72,1.44 1.07,2.13 1.4,2.81c0.33,0.67 0.66,1.33 0.98,1.99c0.33,0.67 0.65,1.34 0.98,2.03c0.69,1.44 1.04,2.21 1.4,3c0.37,0.8 0.74,1.62 1.12,2.43c0.37,0.81 0.74,1.61 1.12,2.38c0.71,1.47 1.06,2.15 1.4,2.81c0.33,0.64 0.66,1.28 0.98,1.93c0.33,0.67 0.67,1.39 0.98,2.16c0.71,1.73 1.05,2.73 1.4,3.8c0.37,1.13 0.73,2.32 1.08,3.54c0.35,1.25 0.69,2.5 0.99,3.77c0.58,2.46 0.8,3.64 1,4.79c0.19,1.1 0.35,2.18 0.47,3.22c0.12,1.01 0.22,1.99 0.29,2.95c0.14,1.84 0.17,2.73 0.2,3.62c0.03,0.89 0.05,1.8 0.06,2.74c0.01,0.99 0.02,2.03 0.02,3.15c0,2.5 0,3.9 0.01,5.42c0.01,1.62 0.04,3.35 0.1,5.19c0.06,1.94 0.16,3.99 0.32,6.13c0.35,4.6 0.66,7.05 1.01,9.56c0.35,2.57 0.77,5.16 1.28,7.74c0.5,2.56 1.04,5.07 1.72,7.47c1.29,4.52 2.13,6.53 2.99,8.38c0.81,1.76 1.71,3.38 2.64,4.87c0.89,1.43 1.83,2.76 2.77,4.02c1.8,2.4 2.72,3.51 3.59,4.62c0.85,1.08 1.7,2.14 2.53,3.17c0.82,1.02 1.63,2.02 2.44,2.99c1.6,1.93 2.4,2.87 3.19,3.8c0.78,0.92 1.55,1.81 2.28,2.69c0.71,0.85 1.39,1.66 2.01,2.46c1.13,1.46 1.59,2.15 2,2.8c0.37,0.61 0.69,1.19 0.95,1.76c0.24,0.54 0.44,1.06 0.59,1.58c0.28,1 0.35,1.5 0.41,2c0.06,0.49 0.09,0.98 0.09,1.46c0,0.47 -0.02,0.93 -0.09,1.37c-0.13,0.84 -0.26,1.23 -0.4,1.6c-0.14,0.36 -0.3,0.71 -0.49,1.05c-0.19,0.34 -0.4,0.67 -0.63,1c-0.47,0.69 -0.73,1.04 -1,1.4c-0.28,0.37 -0.56,0.74 -0.87,1.12c-0.32,0.38 -0.65,0.76 -1.01,1.12c-0.74,0.74 -1.17,1.07 -1.6,1.4c-0.44,0.34 -0.91,0.66 -1.39,0.98c-0.49,0.33 -1,0.65 -1.53,0.98c-1.08,0.68 -1.63,1.04 -2.2,1.4c-0.57,0.37 -1.14,0.73 -1.72,1.1c-0.57,0.36 -1.14,0.72 -1.72,1.05c-1.11,0.65 -1.66,0.93 -2.2,1.2c-0.53,0.26 -1.06,0.5 -1.58,0.73c-0.52,0.22 -1.05,0.44 -1.58,0.64c-1.08,0.41 -1.64,0.6 -2.2,0.8c-0.56,0.2 -1.12,0.38 -1.68,0.56c-0.54,0.17 -1.07,0.33 -1.59,0.47c-0.95,0.25 -1.39,0.33 -1.8,0.4c-0.4,0.06 -0.78,0.1 -1.17,0.13c-0.39,0.03 -0.79,0.04 -1.22,0.04c-0.93,0.01 -1.45,0 -2,0c-0.58,0 -1.17,0 -1.78,0l-0.61,0l-0.61,0l-0.6,0" fill="none" id="svg_5" stroke="#000000" stroke-width="5"/>
 </g>
</svg>